<?xml version="1.0" encoding="UTF-8"?>
<svg version="1.1" xmlns="http://www.w3.org/2000/svg" width="645" height="645">
<path d="M0 0 C1.03417557 -0.00979385 2.06835114 -0.01958771 3.13386536 -0.02967834 C26.06105666 -0.20199229 48.37012021 -0.04257857 70.95703125 4.23828125 C72.67720459 4.55974121 72.67720459 4.55974121 74.43212891 4.88769531 C99.96021113 9.80644233 124.22704029 17.6809281 147.95703125 28.23828125 C148.73336914 28.57827148 149.50970703 28.91826172 150.30957031 29.26855469 C186.16656341 45.04306929 217.66620711 68.87627968 245.33203125 96.36328125 C246.24750732 97.26941162 247.1629834 98.17554199 248.10620117 99.10913086 C254.147686 105.17916246 259.64586581 111.52407139 264.95703125 118.23828125 C265.56305176 118.99028809 266.16907227 119.74229492 266.79345703 120.51708984 C278.66796724 135.27333683 288.87562907 150.70227225 297.91601562 167.33691406 C298.90634565 169.14570634 299.92028023 170.93893056 300.94140625 172.73046875 C323.47764165 212.81615019 336.83422625 262.27406364 337.1953125 308.28125 C337.20510635 309.31542557 337.21490021 310.34960114 337.22499084 311.41511536 C337.39730479 334.34230666 337.23789107 356.65137021 332.95703125 379.23828125 C332.74272461 380.38506348 332.52841797 381.5318457 332.30761719 382.71337891 C327.38887017 408.24146113 319.5143844 432.50829029 308.95703125 456.23828125 C308.61704102 457.01461914 308.27705078 457.79095703 307.92675781 458.59082031 C292.15224321 494.44781341 268.31903282 525.94745711 240.83203125 553.61328125 C239.92590088 554.52875732 239.01977051 555.4442334 238.08618164 556.38745117 C232.01615004 562.428936 225.67124111 567.92711581 218.95703125 573.23828125 C218.20502441 573.84430176 217.45301758 574.45032227 216.67822266 575.07470703 C201.92197567 586.94921724 186.49304025 597.15687907 169.85839844 606.19726562 C168.04960616 607.18759565 166.25638194 608.20153023 164.46484375 609.22265625 C124.37916231 631.75889165 74.92124886 645.11547625 28.9140625 645.4765625 C27.87988693 645.48635635 26.84571136 645.49615021 25.78019714 645.50624084 C2.85300584 645.67855479 -19.45605771 645.51914107 -42.04296875 641.23828125 C-43.18975098 641.02397461 -44.3365332 640.80966797 -45.51806641 640.58886719 C-71.04614863 635.67012017 -95.31297779 627.7956344 -119.04296875 617.23828125 C-120.20747559 616.7282959 -120.20747559 616.7282959 -121.39550781 616.20800781 C-157.25250091 600.43349321 -188.75214461 576.60028282 -216.41796875 549.11328125 C-217.33344482 548.20715088 -218.2489209 547.30102051 -219.19213867 546.36743164 C-225.2336235 540.29740004 -230.73180331 533.95249111 -236.04296875 527.23828125 C-236.64898926 526.48627441 -237.25500977 525.73426758 -237.87939453 524.95947266 C-249.75390474 510.20322567 -259.96156657 494.77429025 -269.00195312 478.13964844 C-269.99228315 476.33085616 -271.00621773 474.53763194 -272.02734375 472.74609375 C-294.56357915 432.66041231 -307.92016375 383.20249886 -308.28125 337.1953125 C-308.29104385 336.16113693 -308.30083771 335.12696136 -308.31092834 334.06144714 C-308.48324229 311.13425584 -308.32382857 288.82519229 -304.04296875 266.23828125 C-303.72150879 264.51810791 -303.72150879 264.51810791 -303.39355469 262.76318359 C-298.47480767 237.23510137 -290.6003219 212.96827221 -280.04296875 189.23828125 C-279.70297852 188.46194336 -279.36298828 187.68560547 -279.01269531 186.88574219 C-263.23818071 151.02874909 -239.40497032 119.52910539 -211.91796875 91.86328125 C-211.01183838 90.94780518 -210.10570801 90.0323291 -209.17211914 89.08911133 C-203.10208754 83.0476265 -196.75717861 77.54944669 -190.04296875 72.23828125 C-189.29096191 71.63226074 -188.53895508 71.02624023 -187.76416016 70.40185547 C-173.00791317 58.52734526 -157.57897775 48.31968343 -140.94433594 39.27929688 C-139.13554366 38.28896685 -137.34231944 37.27503227 -135.55078125 36.25390625 C-95.46509981 13.71767085 -46.00718636 0.36108625 0 0 Z " fill="#FDFDFD" transform="translate(308.04296875,-0.23828125)"/>
<path d="M0 0 C2 2 2 2 2.3671875 4.73828125 C1.9058095 8.83669224 0.49402966 10.8224942 -1.875 14.1875 C-14.07583633 32.2646275 -22.75746997 51.1738942 -25 73 C-24.03344482 72.89606934 -24.03344482 72.89606934 -23.04736328 72.79003906 C-14.16866088 71.93576227 -5.33276338 71.78032356 3.57910156 71.75976562 C6.0999499 71.75009609 8.61996786 71.71898362 11.140625 71.6875 C22.38339035 71.61674421 32.97926468 72.79684984 44 75 C44 75.66 44 76.32 44 77 C45.35931641 77.07347656 45.35931641 77.07347656 46.74609375 77.1484375 C64.23552748 78.22186306 64.23552748 78.22186306 72 83 C74.64914781 83.81167499 77.29022536 84.40293101 80 85 C80 85.66 80 86.32 80 87 C81.4540625 87.0928125 81.4540625 87.0928125 82.9375 87.1875 C87.15412732 87.76171551 90.29465413 89.64895386 93.88671875 91.84375 C95.94104509 92.96774371 97.71396217 93.54588865 100 94 C100 94.66 100 95.32 100 96 C100.70125 96.268125 101.4025 96.53625 102.125 96.8125 C113.78379398 101.62808882 125.27053636 108.98001222 135 117 C136.00933594 117.82628906 137.01867187 118.65257812 138.05859375 119.50390625 C144.68001588 125.01124185 150.96866457 130.78869805 157.0625 136.875 C157.68133057 137.4930249 158.30016113 138.1110498 158.93774414 138.74780273 C169 148.93392715 169 148.93392715 169 153 C169.58652344 153.23074219 170.17304688 153.46148437 170.77734375 153.69921875 C173.56558002 155.3309985 174.7694341 157.13694082 176.5625 159.8125 C177.43068359 161.09060547 177.43068359 161.09060547 178.31640625 162.39453125 C183 169.64269142 183 169.64269142 183 172 C183.66 172 184.32 172 185 172 C185.33 173.65 185.66 175.3 186 177 C186.66 177 187.32 177 188 177 C188.71614583 178.72526042 189.43229167 180.45052083 190.1484375 182.17578125 C191.06806692 184.26533932 191.06806692 184.26533932 193 187 C193 187.99 193 188.98 193 190 C193.66 190 194.32 190 195 190 C200.2033998 201.155676 204.59994836 212.17146786 208 224 C208.54028541 225.75042694 209.08175976 227.50048783 209.625 229.25 C210.08854522 230.83181532 210.54682507 232.41518254 211 234 C211.38478516 235.30710937 211.38478516 235.30710937 211.77734375 236.640625 C219.03381447 263.06717507 218.09277468 294.24109208 213 321 C212.82355957 321.94085449 212.64711914 322.88170898 212.46533203 323.85107422 C211.37795933 329.58249429 210.2189249 335.29518396 209 341 C208.34 341 207.68 341 207 341 C206.98582031 341.64324219 206.97164062 342.28648437 206.95703125 342.94921875 C206.37337853 354.00707169 201.95283526 363.27121645 197 373 C196.63541432 374.32512874 196.29378588 375.65739852 196 377 C195.34 377 194.68 377 194 377 C193.9175 377.680625 193.835 378.36125 193.75 379.0625 C193.07984855 381.68725985 192.35885874 383.27804183 191 385.5625 C189.44160643 388.24098894 188.47799966 390.01250213 188 393 C187.34 393 186.68 393 186 393 C185.731875 393.680625 185.46375 394.36125 185.1875 395.0625 C184.795625 396.031875 184.40375 397.00125 184 398 C183.62875 399.051875 183.2575 400.10375 182.875 401.1875 C181.02293518 405.55647342 177.93251212 408.88743042 174.9296875 412.51171875 C172.38169133 415.79729276 170.65071428 419.20335715 169 423 C166.61178479 428.45877763 163.31903375 432.89951977 159 437 C158.34 437 157.68 437 157 437 C156.67 437.99 156.34 438.98 156 440 C155.34 440 154.68 440 154 440 C153.67 440.99 153.34 441.98 153 443 C151.52440409 446.74574347 151.52440409 446.74574347 148.9375 448 C148.298125 448.33 147.65875 448.66 147 449 C146.33820153 450.98045559 146.33820153 450.98045559 146 453 C145.34 453.66 144.68 454.32 144 455 C143.52049351 456.25558637 143.08741331 457.52934258 142.6875 458.8125 C141.25302337 462.83049832 139.3379165 465.26119671 136 468 C135.34 468 134.68 468 134 468 C133.5978125 468.8353125 133.5978125 468.8353125 133.1875 469.6875 C130.94390197 474.05661195 128.73987151 477.74269255 125 481 C124.34 481 123.68 481 123 481 C122.814375 481.5775 122.62875 482.155 122.4375 482.75 C120.69796164 485.47275569 118.70581396 486.27676584 115.90869141 487.75854492 C113.7620183 489.15478856 112.4073806 490.64526886 110.7734375 492.61328125 C106.96767532 497.0785604 102.944476 501.27448568 98.8125 505.4375 C98.11447266 506.15615234 97.41644531 506.87480469 96.69726562 507.61523438 C96.01986328 508.29779297 95.34246094 508.98035156 94.64453125 509.68359375 C94.03971924 510.29775146 93.43490723 510.91190918 92.81176758 511.54467773 C90.84280292 513.12627029 89.42440353 513.4543402 87 514 C85.90833725 515.93330603 85.90833725 515.93330603 85 518 C84.01 518.66 83.02 519.32 82 520 C81.62875 520.928125 81.62875 520.928125 81.25 521.875 C79.2701732 525.24070556 76.46512212 526.26743894 73 528 C72.34 528 71.68 528 71 528 C71 528.66 71 529.32 71 530 C70.01 530.33 69.02 530.66 68 531 C67.34 531.86625 66.68 532.7325 66 533.625 C62.93607788 537.49181737 59.02808363 539.6623819 54.8515625 542.1953125 C51.37372856 544.39635261 48.23274387 546.89218808 45.0703125 549.51953125 C42.8079711 551.13731878 40.57452774 551.97350019 38 553 C36.41261315 554.23800476 36.41261315 554.23800476 35 555.6875 C30.58984988 559.64783436 22.10085351 566 16 566 C16 566.66 16 567.32 16 568 C12.84453684 570.10364211 12.43912739 570.26411176 8.9375 569.8125 C7.89916016 569.69841797 7.89916016 569.69841797 6.83984375 569.58203125 C5 569 5 569 3 566 C2.375 562.9375 2.375 562.9375 3 559 C4.85782089 556.35335957 6.90426301 553.9564447 9.01953125 551.51171875 C11.67125068 548.14868997 12.79135828 545.07916581 14 541 C14.66 541 15.32 541 16 541 C16.18175781 540.45472656 16.36351562 539.90945313 16.55078125 539.34765625 C17.08125006 537.75624981 17.61256417 536.16512499 18.14453125 534.57421875 C18.68991801 532.93307776 19.22959533 531.29002058 19.76171875 529.64453125 C20.90469289 526.13094407 22.08810852 522.80683901 23.625 519.4375 C24.75972053 516.60069869 25.25249101 514.76030475 25.5625 511.8125 C26 508 26 508 27.01953125 506.05859375 C28.18243079 503.61696803 28.20402782 501.93694597 28.125 499.25 C28.10695313 498.45078125 28.08890625 497.6515625 28.0703125 496.828125 C28.04710937 496.22484375 28.02390625 495.6215625 28 495 C26.96359375 495.16242188 25.9271875 495.32484375 24.859375 495.4921875 C13.70889682 496.87743128 2.21120851 496.13073847 -9 496 C-9.96180176 495.99274902 -10.92360352 495.98549805 -11.91455078 495.97802734 C-47.41696463 495.58303537 -47.41696463 495.58303537 -55 488 C-56.62671188 487.47784557 -58.27769601 487.02983024 -59.9375 486.625 C-72.10956905 483.4434839 -83.37879523 478.40407772 -94.5625 472.6875 C-97.20645696 471.38955749 -99.19340161 470.62027667 -102 470 C-102 469.34 -102 468.68 -102 468 C-103.65 467.67 -105.3 467.34 -107 467 C-107.495 465.515 -107.495 465.515 -108 464 C-109.85426578 463.3640285 -109.85426578 463.3640285 -112 463 C-117.9590041 460.73045742 -120.48685204 458.38682687 -124 453 C-124.92425781 452.69964844 -125.84851563 452.39929688 -126.80078125 452.08984375 C-130.42867093 450.85396924 -132.28887505 449.30288327 -135.0625 446.6875 C-135.91714844 445.88570313 -136.77179688 445.08390625 -137.65234375 444.2578125 C-138.42707031 443.51273437 -139.20179688 442.76765625 -140 442 C-140.57878906 441.46117187 -141.15757812 440.92234375 -141.75390625 440.3671875 C-142.88331559 439.2924789 -143.9512852 438.15358628 -145 437 C-145 436.34 -145 435.68 -145 435 C-145.89525391 434.62875 -145.89525391 434.62875 -146.80859375 434.25 C-149.33868777 432.80680911 -150.41852322 431.38486231 -152.0625 429 C-153.98852828 426.22079739 -155.11204349 424.92530434 -158 423 C-158.7734375 421.4840625 -158.7734375 421.4840625 -159.5625 419.9375 C-161.9898873 415.36830037 -165.78443293 412.52148969 -169.7578125 409.30859375 C-172.34510597 406.64467312 -172.93509346 404.51042199 -174 401 C-174.96662703 399.96770538 -175.96827859 398.96723882 -177 398 C-178.04694063 396.21420282 -179.04348143 394.3983182 -180 392.5625 C-181.43608938 389.81373517 -182.77712346 387.2853026 -184.6875 384.83984375 C-186 383 -186 383 -186 380 C-186.66 380 -187.32 380 -188 380 C-190.29403252 376.68506296 -191.77510305 373.28396311 -193.125 369.5 C-193.45757812 368.5821875 -193.79015625 367.664375 -194.1328125 366.71875 C-194.95067187 364.15465036 -195.52995766 361.64758543 -196 359 C-196.66 359 -197.32 359 -198 359 C-198.17015625 358.18917969 -198.3403125 357.37835938 -198.515625 356.54296875 C-199.68403485 351.20433014 -200.87284972 346.06777797 -202.9375 341 C-205.00734644 335.5945164 -206.11046627 330.10641133 -207.1875 324.4375 C-207.35435303 323.56287109 -207.52120605 322.68824219 -207.69311523 321.78710938 C-209.38766522 312.49627078 -210.15501272 303.34697567 -210.1328125 293.90625 C-210.13376923 292.99290894 -210.13472595 292.07956787 -210.13571167 291.1385498 C-210.13638641 289.2294101 -210.13458195 287.320268 -210.13037109 285.41113281 C-210.12496267 282.47976633 -210.13036535 279.54854961 -210.13671875 276.6171875 C-210.13605881 274.755208 -210.13477941 272.89322858 -210.1328125 271.03125 C-210.13483673 270.15424438 -210.13686096 269.27723877 -210.13894653 268.37365723 C-210.11499206 262.22998411 -210.11499206 262.22998411 -209 260 C-208.7212082 256.75627951 -208.55312781 253.51261901 -208.37890625 250.26171875 C-208.01283386 247.11047706 -207.23202275 244.89360132 -206 242 C-205.66510625 240.34147855 -205.37499334 238.6734248 -205.125 237 C-204.19347965 231.51438017 -202.63857405 226.3611531 -200.9375 221.0703125 C-200.14104547 218.46192392 -199.52152025 215.92279126 -199 213.25 C-197.61060249 206.56121909 -194.51037246 200.79974581 -191 195 C-190.505 193.845 -190.01 192.69 -189.5 191.5 C-188.19259423 188.44938654 -186.70078912 185.83464854 -185 183 C-184.59394531 182.00871094 -184.18789062 181.01742187 -183.76953125 179.99609375 C-181.64254355 174.96759602 -178.90045245 170.29251747 -176.1875 165.5625 C-175.67896484 164.65951172 -175.17042969 163.75652344 -174.64648438 162.82617188 C-171.78942088 157.82540549 -168.77738581 153.15110054 -165.19873047 148.63500977 C-163.68543434 146.57094781 -162.93634468 144.37207319 -162 142 C-160.35830472 139.97945196 -158.69088222 137.97956942 -157 136 C-156.54625 135.236875 -156.0925 134.47375 -155.625 133.6875 C-153.76158099 130.60569164 -151.65027872 127.8414494 -149.4375 125 C-149.00493896 124.44183594 -148.57237793 123.88367188 -148.12670898 123.30859375 C-146.29064815 120.93956848 -144.44826421 118.57548705 -142.60644531 116.2109375 C-141.25625492 114.47566096 -139.90931802 112.73789444 -138.5625 111 C-137.75941406 109.96875 -136.95632812 108.9375 -136.12890625 107.875 C-134.23698098 105.32003303 -132.61732698 102.73159004 -131 100 C-128.9375 97.6875 -128.9375 97.6875 -127 96 C-126.34 96 -125.68 96 -125 96 C-124.77957031 95.45085937 -124.55914062 94.90171875 -124.33203125 94.3359375 C-122.58532955 91.27280666 -120.21079013 89.04077422 -117.6875 86.625 C-114.61836536 83.63659272 -111.60235651 80.67567735 -108.9375 77.3125 C-108.298125 76.549375 -107.65875 75.78625 -107 75 C-106.34 75 -105.68 75 -105 75 C-104.7525 74.38125 -104.505 73.7625 -104.25 73.125 C-102.76259631 70.59641373 -101.56321991 70.28160996 -99 69 C-97.73195434 66.9664052 -97.73195434 66.9664052 -97 65 C-96.34 65 -95.68 65 -95 65 C-95 64.34 -95 63.68 -95 63 C-93.3203125 61.2734375 -93.3203125 61.2734375 -91.125 59.375 C-90.40570313 58.74335937 -89.68640625 58.11171875 -88.9453125 57.4609375 C-87 56 -87 56 -85 56 C-85 55.34 -85 54.68 -85 54 C-83.390625 52.34375 -83.390625 52.34375 -81.25 50.5 C-80.55390625 49.8915625 -79.8578125 49.283125 -79.140625 48.65625 C-77 47 -77 47 -74.984375 46.03125 C-72.48903989 44.73446168 -70.97174813 43.00733926 -69 41 C-66.83973599 39.18689618 -64.61166991 37.46744296 -62.375 35.75 C-61.49714844 35.06164062 -61.49714844 35.06164062 -60.6015625 34.359375 C-56.24237351 31 -56.24237351 31 -54 31 C-54 30.34 -54 29.68 -54 29 C-52.66167463 28.04908461 -51.31048896 27.11412721 -49.921875 26.23828125 C-47.84498601 24.9001231 -45.87172433 23.45505975 -43.875 22 C-36.37732395 16.72427962 -28.41655548 12.15437967 -20.52148438 7.50537109 C-18.77120898 6.4604255 -17.03364276 5.39401202 -15.30664062 4.31103516 C-14.43201172 3.76624512 -13.55738281 3.22145508 -12.65625 2.66015625 C-11.87056641 2.16265869 -11.08488281 1.66516113 -10.27539062 1.15258789 C-6.61357636 -0.70228605 -4.02985898 -0.57569414 0 0 Z " fill="#BD8FD5" transform="translate(321,45)"/>
<path d="M0 0 C2 2 2 2 2.3671875 4.73828125 C1.9058095 8.83669224 0.49402966 10.8224942 -1.875 14.1875 C-14.07583633 32.2646275 -22.75746997 51.1738942 -25 73 C-24.03344482 72.89606934 -24.03344482 72.89606934 -23.04736328 72.79003906 C-14.16866088 71.93576227 -5.33276338 71.78032356 3.57910156 71.75976562 C6.0999499 71.75009609 8.61996786 71.71898362 11.140625 71.6875 C22.38339035 71.61674421 32.97926468 72.79684984 44 75 C44 75.66 44 76.32 44 77 C45.35931641 77.07347656 45.35931641 77.07347656 46.74609375 77.1484375 C64.23552748 78.22186306 64.23552748 78.22186306 72 83 C74.64914781 83.81167499 77.29022536 84.40293101 80 85 C80 85.66 80 86.32 80 87 C81.4540625 87.0928125 81.4540625 87.0928125 82.9375 87.1875 C87.15412732 87.76171551 90.29465413 89.64895386 93.88671875 91.84375 C95.94104509 92.96774371 97.71396217 93.54588865 100 94 C100 94.66 100 95.32 100 96 C100.70125 96.268125 101.4025 96.53625 102.125 96.8125 C113.78379398 101.62808882 125.27053636 108.98001222 135 117 C136.00933594 117.82628906 137.01867187 118.65257812 138.05859375 119.50390625 C144.68001588 125.01124185 150.96866457 130.78869805 157.0625 136.875 C157.68133057 137.4930249 158.30016113 138.1110498 158.93774414 138.74780273 C169 148.93392715 169 148.93392715 169 153 C169.58652344 153.23074219 170.17304688 153.46148437 170.77734375 153.69921875 C173.56558002 155.3309985 174.7694341 157.13694082 176.5625 159.8125 C177.43068359 161.09060547 177.43068359 161.09060547 178.31640625 162.39453125 C183 169.64269142 183 169.64269142 183 172 C183.66 172 184.32 172 185 172 C185.33 173.65 185.66 175.3 186 177 C186.66 177 187.32 177 188 177 C188.71614583 178.72526042 189.43229167 180.45052083 190.1484375 182.17578125 C191.06806692 184.26533932 191.06806692 184.26533932 193 187 C193 187.99 193 188.98 193 190 C193.66 190 194.32 190 195 190 C198.24043814 196.6169252 200.69039355 202.73763698 202 210 C200.35 209.67 198.7 209.34 197 209 C197 208.34 197 207.68 197 207 C196.34 207 195.68 207 195 207 C195 205.68 195 204.36 195 203 C180.39171483 194.31027779 180.39171483 194.31027779 165.125 186.875 C164.50302734 186.60486084 163.88105469 186.33472168 163.24023438 186.05639648 C159.23577428 184.37933818 155.1786044 183.16015306 151 182 C149 181 149 181 148 178 C146.3085253 177.16635618 146.3085253 177.16635618 144.1953125 176.71875 C143.39456299 176.51797852 142.59381348 176.31720703 141.76879883 176.11035156 C140.89634521 175.90893555 140.0238916 175.70751953 139.125 175.5 C138.22096436 175.28569336 137.31692871 175.07138672 136.38549805 174.85058594 C93.86597845 165.03069863 47.25273049 167.24016529 7 185 C5.63783511 185.56649392 4.27451433 186.13021504 2.91015625 186.69140625 C-8.36950248 191.38719015 -18.07292284 197.45159073 -27.90625 204.71484375 C-30 206 -30 206 -33 206 C-33.22945312 206.59554687 -33.45890625 207.19109375 -33.6953125 207.8046875 C-35.35625826 210.59945253 -37.06691731 211.50526535 -39.875 213.125 C-54.81121797 222.29842521 -66.65987756 234.46392556 -73 251 C-73.33 251.76699219 -73.66 252.53398437 -74 253.32421875 C-74.33 254.10410156 -74.66 254.88398438 -75 255.6875 C-75.33 256.45449219 -75.66 257.22148437 -76 258.01171875 C-81.89933622 275.64059458 -81.19665228 296.89953304 -74 314 C-73.74299316 314.61762207 -73.48598633 315.23524414 -73.22119141 315.87158203 C-68.07349882 327.8512644 -60.71834722 337.756288 -51.25 346.625 C-50.70714355 347.13434082 -50.16428711 347.64368164 -49.60498047 348.16845703 C-46.54567565 350.9270007 -43.86436309 352.63610715 -40 354 C-38.48459742 354.9337868 -36.98495043 355.89350879 -35.5 356.875 C-30.43174256 360.00157209 -25.30694871 361.65723822 -19.58984375 363.23828125 C-17 364 -17 364 -16 365 C-7.8415951 366.26947976 0.32972967 366.11405817 8.5625 366.0625 C9.96679527 366.05747366 11.3710923 366.05291276 12.77539062 366.04882812 C16.18363903 366.03711593 19.5917964 366.02071372 23 366 C22.6875 367.9375 22.6875 367.9375 22 370 C21.01 370.33 20.02 370.66 19 371 C18.67 371.66 18.34 372.32 18 373 C16.12611619 373.74955352 14.24636853 374.48687047 12.34375 375.16015625 C10.05216602 375.98130718 7.8124679 376.88400297 5.5625 377.8125 C-5.68055111 382.32016291 -16.90626148 386.46790275 -28.875 388.484375 C-29.865 388.65453125 -30.855 388.8246875 -31.875 389 C-32.77992188 389.144375 -33.68484375 389.28875 -34.6171875 389.4375 C-37.24533123 389.91171703 -37.24533123 389.91171703 -40 392 C-52.18100321 394.5889443 -64.77982925 394.31011029 -77.16552734 394.26074219 C-80.39048759 394.24994816 -83.61489951 394.2607351 -86.83984375 394.2734375 C-88.92187621 394.27211688 -91.00390833 394.26955652 -93.0859375 394.265625 C-94.03407318 394.26967346 -94.98220886 394.27372192 -95.95907593 394.27789307 C-102.19920642 394.23459581 -107.92501309 393.37934222 -114 392 C-115.37346214 391.74294474 -116.7484462 391.49385475 -118.125 391.25390625 C-127.05281119 389.66093994 -135.59628871 387.7345177 -144.0625 384.4375 C-146.87441227 383.34334865 -149.60646118 382.60419037 -152.5625 382 C-156.68108032 381.15626306 -160.19651819 379.78035319 -164 378 C-164 377.34 -164 376.68 -164 376 C-164.58007812 375.8659375 -165.16015625 375.731875 -165.7578125 375.59375 C-172.63559554 373.77245554 -178.60335691 370.15389529 -184.5625 366.375 C-185.19462402 365.97861328 -185.82674805 365.58222656 -186.47802734 365.17382812 C-188.02361599 364.17261645 -189.51745758 363.09239968 -191 362 C-191 361.34 -191 360.68 -191 360 C-191.66 360 -192.32 360 -193 360 C-193 359.34 -193 358.68 -193 358 C-193.62398682 357.90009766 -194.24797363 357.80019531 -194.89086914 357.69726562 C-197 357 -197 357 -198.74609375 353.84375 C-199.33295928 352.40502685 -199.89492638 350.95600458 -200.4375 349.5 C-200.7360791 348.71625 -201.0346582 347.9325 -201.34228516 347.125 C-207.42708864 330.2296485 -210.174945 311.82325275 -210.1328125 293.90625 C-210.13376923 292.99290894 -210.13472595 292.07956787 -210.13571167 291.1385498 C-210.13638641 289.2294101 -210.13458195 287.320268 -210.13037109 285.41113281 C-210.12496267 282.47976633 -210.13036535 279.54854961 -210.13671875 276.6171875 C-210.13605881 274.755208 -210.13477941 272.89322858 -210.1328125 271.03125 C-210.13483673 270.15424438 -210.13686096 269.27723877 -210.13894653 268.37365723 C-210.11499206 262.22998411 -210.11499206 262.22998411 -209 260 C-208.7212082 256.75627951 -208.55312781 253.51261901 -208.37890625 250.26171875 C-208.01283386 247.11047706 -207.23202275 244.89360132 -206 242 C-205.66510625 240.34147855 -205.37499334 238.6734248 -205.125 237 C-204.19347965 231.51438017 -202.63857405 226.3611531 -200.9375 221.0703125 C-200.14104547 218.46192392 -199.52152025 215.92279126 -199 213.25 C-197.61060249 206.56121909 -194.51037246 200.79974581 -191 195 C-190.505 193.845 -190.01 192.69 -189.5 191.5 C-188.19259423 188.44938654 -186.70078912 185.83464854 -185 183 C-184.59394531 182.00871094 -184.18789062 181.01742187 -183.76953125 179.99609375 C-181.64254355 174.96759602 -178.90045245 170.29251747 -176.1875 165.5625 C-175.67896484 164.65951172 -175.17042969 163.75652344 -174.64648438 162.82617188 C-171.78942088 157.82540549 -168.77738581 153.15110054 -165.19873047 148.63500977 C-163.68543434 146.57094781 -162.93634468 144.37207319 -162 142 C-160.35830472 139.97945196 -158.69088222 137.97956942 -157 136 C-156.54625 135.236875 -156.0925 134.47375 -155.625 133.6875 C-153.76158099 130.60569164 -151.65027872 127.8414494 -149.4375 125 C-149.00493896 124.44183594 -148.57237793 123.88367188 -148.12670898 123.30859375 C-146.29064815 120.93956848 -144.44826421 118.57548705 -142.60644531 116.2109375 C-141.25625492 114.47566096 -139.90931802 112.73789444 -138.5625 111 C-137.75941406 109.96875 -136.95632812 108.9375 -136.12890625 107.875 C-134.23698098 105.32003303 -132.61732698 102.73159004 -131 100 C-128.9375 97.6875 -128.9375 97.6875 -127 96 C-126.34 96 -125.68 96 -125 96 C-124.77957031 95.45085937 -124.55914062 94.90171875 -124.33203125 94.3359375 C-122.58532955 91.27280666 -120.21079013 89.04077422 -117.6875 86.625 C-114.61836536 83.63659272 -111.60235651 80.67567735 -108.9375 77.3125 C-108.298125 76.549375 -107.65875 75.78625 -107 75 C-106.34 75 -105.68 75 -105 75 C-104.7525 74.38125 -104.505 73.7625 -104.25 73.125 C-102.76259631 70.59641373 -101.56321991 70.28160996 -99 69 C-97.73195434 66.9664052 -97.73195434 66.9664052 -97 65 C-96.34 65 -95.68 65 -95 65 C-95 64.34 -95 63.68 -95 63 C-93.3203125 61.2734375 -93.3203125 61.2734375 -91.125 59.375 C-90.40570313 58.74335937 -89.68640625 58.11171875 -88.9453125 57.4609375 C-87 56 -87 56 -85 56 C-85 55.34 -85 54.68 -85 54 C-83.390625 52.34375 -83.390625 52.34375 -81.25 50.5 C-80.55390625 49.8915625 -79.8578125 49.283125 -79.140625 48.65625 C-77 47 -77 47 -74.984375 46.03125 C-72.48903989 44.73446168 -70.97174813 43.00733926 -69 41 C-66.83973599 39.18689618 -64.61166991 37.46744296 -62.375 35.75 C-61.49714844 35.06164062 -61.49714844 35.06164062 -60.6015625 34.359375 C-56.24237351 31 -56.24237351 31 -54 31 C-54 30.34 -54 29.68 -54 29 C-52.66167463 28.04908461 -51.31048896 27.11412721 -49.921875 26.23828125 C-47.84498601 24.9001231 -45.87172433 23.45505975 -43.875 22 C-36.37732395 16.72427962 -28.41655548 12.15437967 -20.52148438 7.50537109 C-18.77120898 6.4604255 -17.03364276 5.39401202 -15.30664062 4.31103516 C-14.43201172 3.76624512 -13.55738281 3.22145508 -12.65625 2.66015625 C-11.87056641 2.16265869 -11.08488281 1.66516113 -10.27539062 1.15258789 C-6.61357636 -0.70228605 -4.02985898 -0.57569414 0 0 Z " fill="#6B318F" transform="translate(321,45)"/>
<path d="M0 0 C0.33 1.32 0.66 2.64 1 4 C1.64582031 4.11214844 2.29164063 4.22429687 2.95703125 4.33984375 C19.45556891 7.79302605 34.09474425 16.81294138 48 26 C47.67 27.32 47.34 28.64 47 30 C47.66 30 48.32 30 49 30 C49 30.66 49 31.32 49 32 C49.99 31.67 50.98 31.34 52 31 C52 30.67 52 30.34 52 30 C52.32380126 28.66431979 52.65657551 27.33076989 53 26 C61.50145916 50.7186045 61.50145916 50.7186045 63.4296875 60.4140625 C63.96519298 63.08018826 63.96519298 63.08018826 65 65.88671875 C72.3899495 88.89370995 69.45275207 120.60395558 65 144 C64.82355957 144.94085449 64.64711914 145.88170898 64.46533203 146.85107422 C63.37795933 152.58249429 62.2189249 158.29518396 61 164 C60.34 164 59.68 164 59 164 C58.98582031 164.64324219 58.97164062 165.28648437 58.95703125 165.94921875 C58.37337853 177.00707169 53.95283526 186.27121645 49 196 C48.63541432 197.32512874 48.29378588 198.65739852 48 200 C47.34 200 46.68 200 46 200 C45.9175 200.680625 45.835 201.36125 45.75 202.0625 C45.07984855 204.68725985 44.35885874 206.27804183 43 208.5625 C41.44160643 211.24098894 40.47799966 213.01250213 40 216 C39.34 216 38.68 216 38 216 C37.731875 216.680625 37.46375 217.36125 37.1875 218.0625 C36.795625 219.031875 36.40375 220.00125 36 221 C35.443125 222.5778125 35.443125 222.5778125 34.875 224.1875 C33.02293518 228.55647342 29.93251212 231.88743042 26.9296875 235.51171875 C24.38169133 238.79729276 22.65071428 242.20335715 21 246 C18.61178479 251.45877763 15.31903375 255.89951977 11 260 C10.34 260 9.68 260 9 260 C8.67 260.99 8.34 261.98 8 263 C7.34 263 6.68 263 6 263 C5.67 263.99 5.34 264.98 5 266 C3.52440409 269.74574347 3.52440409 269.74574347 0.9375 271 C0.298125 271.33 -0.34125 271.66 -1 272 C-1.66179847 273.98045559 -1.66179847 273.98045559 -2 276 C-2.66 276.66 -3.32 277.32 -4 278 C-4.47950649 279.25558637 -4.91258669 280.52934258 -5.3125 281.8125 C-7.52091689 287.9383599 -11.55439793 290.76207445 -17 294 C-17.66 294.99 -18.32 295.98 -19 297 C-19.66 297 -20.32 297 -21 297 C-21.66 298.32 -22.32 299.64 -23 301 C-23.66 301 -24.32 301 -25 301 C-26.57663375 296.22399833 -25.14180647 292.81821059 -23.3125 288.375 C-22.78690586 287.04981778 -22.26218556 285.72428869 -21.73828125 284.3984375 C-21.46161621 283.69976562 -21.18495117 283.00109375 -20.89990234 282.28125 C-20.60293457 281.5284375 -20.3059668 280.775625 -20 280 C-19.66307129 279.154375 -19.32614258 278.30875 -18.97900391 277.4375 C-16.42818588 270.78464253 -14.86179287 264.28013616 -13.75 257.25 C-13.57944092 256.20811523 -13.40888184 255.16623047 -13.2331543 254.09277344 C-12.12742832 246.92966439 -11.65146397 240.06263676 -11.95703125 232.828125 C-12 230 -12 230 -11.5065918 228.0690918 C-10.49656541 223.94380329 -10.96641675 219.5187243 -11.0390625 215.28710938 C-11.08054394 211.35674313 -10.89457761 207.85087707 -10 204 C-10 203.01 -10 202.02 -10 201 C-10.66 201.99 -11.32 202.98 -12 204 C-12 200.37 -12 196.74 -12 193 C-12.33 193 -12.66 193 -13 193 C-13.07516846 192.410979 -13.15033691 191.82195801 -13.2277832 191.21508789 C-13.58011879 188.49627155 -13.94622804 185.77947257 -14.3125 183.0625 C-14.43044922 182.13630859 -14.54839844 181.21011719 -14.66992188 180.25585938 C-15.49735009 174.20926859 -16.87968556 168.71702357 -19 163 C-19.98150241 160.05549278 -20.1613058 158.06481021 -20 155 C-19.67 154.67 -19.34 154.34 -19 154 C-19.66 154 -20.32 154 -21 154 C-21.1952124 153.46334717 -21.3904248 152.92669434 -21.59155273 152.3737793 C-27.71315586 135.65606987 -34.39657513 119.33161436 -43.78515625 104.15234375 C-45 102 -45 102 -45 100 C-45.66 100 -46.32 100 -47 100 C-47.30292969 99.41992188 -47.60585938 98.83984375 -47.91796875 98.2421875 C-52.12217924 89.91503692 -52.12217924 89.91503692 -59 84 C-59 94.23 -59 104.46 -59 115 C-59.99 115.495 -59.99 115.495 -61 116 C-61.03440186 115.35675781 -61.06880371 114.71351563 -61.10424805 114.05078125 C-62.48864402 89.97731585 -67.12736495 67.4407684 -85 50 C-85.56976563 49.39542969 -86.13953125 48.79085937 -86.7265625 48.16796875 C-89.56618207 45.17544659 -92.3764833 42.95865768 -96 41 C-97.485 40.01 -97.485 40.01 -99 39 C-99 38.34 -99 37.68 -99 37 C-99.721875 36.896875 -100.44375 36.79375 -101.1875 36.6875 C-104.27432446 35.93294291 -106.29795933 34.64758577 -109 33 C-110.98451771 32.28856912 -112.98202112 31.61008664 -115 31 C-115 30.34 -115 29.68 -115 29 C-116.03125 28.87625 -117.0625 28.7525 -118.125 28.625 C-121.64073257 28.05794636 -124.63654722 27.12115093 -128 26 C-146.13034614 22.79514083 -166.50791522 24.47969899 -183 33 C-181.7394394 29.07825591 -179.36988992 27.85973666 -175.84375 25.98828125 C-173.10020216 24.5176931 -170.58167541 22.73766614 -168 21 C-160.9021465 16.23771627 -153.88414778 12.29207594 -146 9 C-144.99380615 8.55720703 -144.99380615 8.55720703 -143.96728516 8.10546875 C-98.09658167 -12.07161178 -47.87807608 -13.06397431 0 0 Z " fill="#B687C9" transform="translate(469,222)"/>
<path d="M0 0 C0.99 0.495 0.99 0.495 2 1 C1.505 1.433125 1.01 1.86625 0.5 2.3125 C-1.33218192 3.99740483 -1.33218192 3.99740483 -1 7 C-1.99 7.33 -2.98 7.66 -4 8 C-4 9.32 -4 10.64 -4 12 C-4.66 12 -5.32 12 -6 12 C-6 13.32 -6 14.64 -6 16 C-6.66 16.33 -7.32 16.66 -8 17 C-8.82200779 19.35762673 -9.40579027 21.74556432 -10.0234375 24.1640625 C-11 27 -11 27 -12.90625 30.09765625 C-15.79307881 34.98102063 -16.8639054 40.32906463 -18.125 45.8125 C-18.51510254 47.47647827 -18.51510254 47.47647827 -18.91308594 49.17407227 C-20.85121969 57.72099524 -22.09118092 66.1473489 -22.80126953 74.87158203 C-23.00557335 77.05969099 -23.286189 79.22591149 -23.58984375 81.40234375 C-25.91993054 98.41011325 -24.16075003 114.74339675 -22 131.6875 C-21.86582672 132.74256241 -21.86582672 132.74256241 -21.72894287 133.81893921 C-21.48732729 140.90125143 -21.48732729 140.90125143 -19 147 C-18.95907063 149.33297433 -18.95758277 151.66705225 -19 154 C-18.34 154 -17.68 154 -17 154 C-15.68 159.94 -14.36 165.88 -13 172 C-12.34 172 -11.68 172 -11 172 C-10.81824219 172.61746094 -10.63648438 173.23492187 -10.44921875 173.87109375 C-8.74279553 179.62042737 -6.93345274 185.32305366 -5 191 C-4.34 191 -3.68 191 -3 191 C-2.44570312 192.13179687 -1.89140625 193.26359375 -1.3203125 194.4296875 C-0.5887537 195.91156303 0.14302878 197.39332815 0.875 198.875 C1.42220703 199.99455078 1.42220703 199.99455078 1.98046875 201.13671875 C2.51220703 202.20986328 2.51220703 202.20986328 3.0546875 203.3046875 C3.37937012 203.96452637 3.70405273 204.62436523 4.03857422 205.30419922 C5.00275819 207.18034686 5.00275819 207.18034686 7 209 C7 209.99 7 210.98 7 212 C7.66 212 8.32 212 9 212 C11.04169485 214.90548882 12 216.40142046 12 220 C12.99 220.33 13.98 220.66 15 221 C16.04349839 222.63978318 17.03182008 224.31464976 18 226 C19.00189434 227.43012337 20.02410715 228.84615335 21.0625 230.25 C21.56910156 230.93578125 22.07570313 231.6215625 22.59765625 232.328125 C23.91420589 234.12288504 23.91420589 234.12288504 26 235 C26 234.01 26 233.02 26 232 C26.66 232 27.32 232 28 232 C28 230.02 28 228.04 28 226 C29.5479967 228.93304637 30.68521796 231.86169503 31.75 235 C36.96210325 249.37624083 44.60769239 261.20343331 55.75 271.625 C56.29277588 272.13417969 56.83555176 272.64335937 57.39477539 273.16796875 C60.45398512 275.92694272 63.13545991 277.63604467 67 279 C68.51540258 279.9337868 70.01504957 280.89350879 71.5 281.875 C76.56825744 285.00157209 81.69305129 286.65723822 87.41015625 288.23828125 C90 289 90 289 91 290 C99.1584049 291.26947976 107.32972967 291.11405817 115.5625 291.0625 C116.96679527 291.05747366 118.3710923 291.05291276 119.77539062 291.04882812 C123.18363903 291.03711593 126.5917964 291.02071372 130 291 C129.6875 292.9375 129.6875 292.9375 129 295 C128.01 295.33 127.02 295.66 126 296 C125.67 296.66 125.34 297.32 125 298 C123.12611619 298.74955352 121.24636853 299.48687047 119.34375 300.16015625 C117.05216602 300.98130718 114.8124679 301.88400297 112.5625 302.8125 C101.31944889 307.32016291 90.09373852 311.46790275 78.125 313.484375 C77.135 313.65453125 76.145 313.8246875 75.125 314 C74.22007812 314.144375 73.31515625 314.28875 72.3828125 314.4375 C69.75466877 314.91171703 69.75466877 314.91171703 67 317 C54.81899679 319.5889443 42.22017075 319.31011029 29.83447266 319.26074219 C26.60951241 319.24994816 23.38510049 319.2607351 20.16015625 319.2734375 C18.07812379 319.27211688 15.99609167 319.26955652 13.9140625 319.265625 C12.96592682 319.26967346 12.01779114 319.27372192 11.04092407 319.27789307 C4.80079358 319.23459581 -0.92501309 318.37934222 -7 317 C-8.37346214 316.74294474 -9.7484462 316.49385475 -11.125 316.25390625 C-20.05281119 314.66093994 -28.59628871 312.7345177 -37.0625 309.4375 C-39.87441227 308.34334865 -42.60646118 307.60419037 -45.5625 307 C-49.68108032 306.15626306 -53.19651819 304.78035319 -57 303 C-57 302.34 -57 301.68 -57 301 C-57.58007812 300.8659375 -58.16015625 300.731875 -58.7578125 300.59375 C-65.63559554 298.77245554 -71.60335691 295.15389529 -77.5625 291.375 C-78.19462402 290.97861328 -78.82674805 290.58222656 -79.47802734 290.17382812 C-81.02361599 289.17261645 -82.51745758 288.09239968 -84 287 C-84 286.34 -84 285.68 -84 285 C-84.66 285 -85.32 285 -86 285 C-86 284.34 -86 283.68 -86 283 C-86.62398682 282.90009766 -87.24797363 282.80019531 -87.89086914 282.69726562 C-90 282 -90 282 -91.74609375 278.84375 C-92.33295928 277.40502685 -92.89492638 275.95600458 -93.4375 274.5 C-93.7360791 273.71625 -94.0346582 272.9325 -94.34228516 272.125 C-100.42708864 255.2296485 -103.174945 236.82325275 -103.1328125 218.90625 C-103.13376923 217.99290894 -103.13472595 217.07956787 -103.13571167 216.1385498 C-103.13638641 214.2294101 -103.13458195 212.320268 -103.13037109 210.41113281 C-103.12496267 207.47976633 -103.13036535 204.54854961 -103.13671875 201.6171875 C-103.13605881 199.755208 -103.13477941 197.89322858 -103.1328125 196.03125 C-103.13483673 195.15424438 -103.13686096 194.27723877 -103.13894653 193.37365723 C-103.11499206 187.22998411 -103.11499206 187.22998411 -102 185 C-101.7212082 181.75627951 -101.55312781 178.51261901 -101.37890625 175.26171875 C-101.01283386 172.11047706 -100.23202275 169.89360132 -99 167 C-98.66510625 165.34147855 -98.37499334 163.6734248 -98.125 162 C-97.19347965 156.51438017 -95.63857405 151.3611531 -93.9375 146.0703125 C-93.14104547 143.46192392 -92.52152025 140.92279126 -92 138.25 C-90.61060249 131.56121909 -87.51037246 125.79974581 -84 120 C-83.505 118.845 -83.01 117.69 -82.5 116.5 C-81.19259423 113.44938654 -79.70078912 110.83464854 -78 108 C-77.59394531 107.00871094 -77.18789062 106.01742187 -76.76953125 104.99609375 C-74.64254355 99.96759602 -71.90045245 95.29251747 -69.1875 90.5625 C-68.67896484 89.65951172 -68.17042969 88.75652344 -67.64648438 87.82617188 C-64.78942088 82.82540549 -61.77738581 78.15110054 -58.19873047 73.63500977 C-56.68543434 71.57094781 -55.93634468 69.37207319 -55 67 C-53.35830472 64.97945196 -51.69088222 62.97956942 -50 61 C-49.54625 60.236875 -49.0925 59.47375 -48.625 58.6875 C-46.76158099 55.60569164 -44.65027872 52.8414494 -42.4375 50 C-42.00493896 49.44183594 -41.57237793 48.88367188 -41.12670898 48.30859375 C-39.29064815 45.93956848 -37.44826421 43.57548705 -35.60644531 41.2109375 C-34.25625492 39.47566096 -32.90931802 37.73789444 -31.5625 36 C-30.75941406 34.96875 -29.95632812 33.9375 -29.12890625 32.875 C-27.23698098 30.32003303 -25.61732698 27.73159004 -24 25 C-21.9375 22.6875 -21.9375 22.6875 -20 21 C-19.34 21 -18.68 21 -18 21 C-17.66935547 20.17628906 -17.66935547 20.17628906 -17.33203125 19.3359375 C-15.58525086 16.27266866 -13.21044865 14.04124539 -10.6875 11.625 C-6.88669488 7.91331977 -3.27941565 4.18408204 0 0 Z " fill="#8950A6" transform="translate(214,120)"/>
<path d="M0 0 C0.928125 0.26425781 1.85625 0.52851563 2.8125 0.80078125 C5.21835707 1.50583103 7.61175224 2.23779327 10 3 C10 3.66 10 4.32 10 5 C10.60328125 5.10957031 11.2065625 5.21914062 11.828125 5.33203125 C16.28507879 6.21623337 19.52045473 6.92194072 23 10 C23.99 10.33 24.98 10.66 26 11 C26 11.66 26 12.32 26 13 C26.53625 13.2475 27.0725 13.495 27.625 13.75 C33.18919154 16.67852186 37.67662961 20.31487389 42.0625 24.75 C42.85346069 25.54942017 42.85346069 25.54942017 43.66040039 26.36499023 C47.44566844 30.26945145 50.57478374 34.10238428 53 39 C53.40347656 39.78246094 53.80695313 40.56492187 54.22265625 41.37109375 C55.60082746 44.20751339 56.8092913 47.08001589 58 50 C58.47050781 51.05832031 58.94101562 52.11664063 59.42578125 53.20703125 C65.79884374 69.77699373 66.17382897 91.78400948 59.28125 108.23046875 C58.8584375 109.14441406 58.435625 110.05835938 58 111 C57.552766 112.39274502 57.11374328 113.78818817 56.6875 115.1875 C54.50226791 120.91738182 50.76605568 126.20247684 47 131 C46.34 131 45.68 131 45 131 C44.58814453 131.87978516 44.58814453 131.87978516 44.16796875 132.77734375 C37.72043023 145.04707424 23.4588094 153.73684089 10.8046875 158.29296875 C8.07410298 158.98131944 5.80131869 159.14878799 3 159 C3 159.66 3 160.32 3 161 C-4.80935478 163.39061881 -12.22904441 164.16403813 -20.375 164.125 C-21.17421875 164.12886719 -21.9734375 164.13273438 -22.796875 164.13671875 C-36.65678545 164.11429171 -53.73289267 161.26710733 -64 151 C-64.71671875 150.75894531 -65.4334375 150.51789063 -66.171875 150.26953125 C-81.76655447 143.26915718 -93.16693798 124.12341004 -99 109 C-99.41378906 107.93136719 -99.82757813 106.86273438 -100.25390625 105.76171875 C-105.50785534 89.59712973 -106.01421683 66.5871314 -98.5703125 51.0078125 C-98.05210937 50.01523437 -97.53390625 49.02265625 -97 48 C-96.53980469 47.03320312 -96.07960937 46.06640625 -95.60546875 45.0703125 C-92.60002812 38.82760662 -89.40422347 33.3412923 -85 28 C-84.39671875 27.18015625 -84.39671875 27.18015625 -83.78125 26.34375 C-76.7481178 17.25214009 -65.64459599 9.15398868 -55 5 C-54.154375 4.525625 -53.30875 4.05125 -52.4375 3.5625 C-37.29244164 -3.32161744 -16.01906542 -4.7199032 0 0 Z " fill="#FCFCFC" transform="translate(344,248)"/>
<path d="M0 0 C1.25417725 0.26200195 1.25417725 0.26200195 2.53369141 0.52929688 C12.15833567 2.58493317 12.15833567 2.58493317 16 4 C16.33 4.99 16.66 5.98 17 7 C12.34779263 6.00854597 7.80032613 4.94579914 3.25 3.5625 C-24.3876221 -3.79751893 -57.04607011 -3.76728478 -85 2 C-85.69383789 2.13921875 -86.38767578 2.2784375 -87.10253906 2.421875 C-95.57418421 4.18221685 -103.78464867 6.81235436 -112 9.5 C-112.87277588 9.78456055 -113.74555176 10.06912109 -114.64477539 10.36230469 C-120.01652233 12.17162665 -124.9932383 14.3521592 -130 17 C-131.093125 17.53625 -132.18625 18.0725 -133.3125 18.625 C-136.11633739 19.99461678 -136.11633739 19.99461678 -139 22 C-139.70125 22.309375 -140.4025 22.61875 -141.125 22.9375 C-143.34495729 23.91908645 -143.34495729 23.91908645 -144 27 C-143.34 27.66 -142.68 28.32 -142 29 C-142.55461914 29.13575439 -143.10923828 29.27150879 -143.68066406 29.41137695 C-146.20628619 30.03538836 -148.72805953 30.67377923 -151.25 31.3125 C-152.55904297 31.63250977 -152.55904297 31.63250977 -153.89453125 31.95898438 C-155.16103516 32.28286133 -155.16103516 32.28286133 -156.453125 32.61328125 C-157.61569824 32.90392456 -157.61569824 32.90392456 -158.80175781 33.20043945 C-161.26747922 34.09728948 -162.98385916 35.33929435 -165 37 C-165.66 36.67 -166.32 36.34 -167 36 C-164.90409453 32.8561418 -163.09889639 31.7977591 -159.84375 30.0234375 C-157.1194838 28.51123889 -154.58439358 26.73949568 -152 25 C-144.9021465 20.23771627 -137.88414778 16.29207594 -130 13 C-128.99380615 12.55720703 -128.99380615 12.55720703 -127.96728516 12.10546875 C-87.75194974 -5.58399314 -42.77691112 -9.06636648 0 0 Z " fill="#8F59AA" transform="translate(453,218)"/>
<path d="M0 0 C3.01636456 -0.14029603 5.39739343 -0.24613508 8.21875 0.90625 C11.67710499 2.26627724 15.17366332 2.95405739 18.8125 3.625 C19.48603516 3.7590625 20.15957031 3.893125 20.85351562 4.03125 C24.40505768 4.69737655 27.70698237 5.05192675 31.32421875 4.9609375 C35 5 35 5 38 7 C37.67 7.33 37.34 7.66 37 8 C39.64 8.66 42.28 9.32 45 10 C45 9.34 45 8.68 45 8 C44.34 7.67 43.68 7.34 43 7 C46.563579 6.91900957 49.56581379 7.1137584 53 8 C54.66623639 8.03786901 56.33397597 8.04627845 58 8 C58 8.66 58 9.32 58 10 C59.65 10 61.3 10 63 10 C63 10.66 63 11.32 63 12 C74.34503535 11.46356473 85.67561921 10.88120182 97 10 C100.42507302 20.27521905 96.00221625 31.34320302 92.625 41.10546875 C91.60783881 44.18873861 91.10532514 47.2978324 90.625 50.5 C89.62279163 54.5088335 87.5451339 57.33923164 84.9375 60.5 C82.99005704 63.01282963 82.06240219 65.02527386 81 68 C78.35355649 74.67364017 78.35355649 74.67364017 76.375 76.5 C74.13282568 78.94600835 74.30169739 81.80200762 74 85 C79.02267234 83.89330948 82.60339213 82.71555192 87 80 C87.66 80.33 88.32 80.66 89 81 C87.35 81.66 85.7 82.32 84 83 C84 83.66 84 84.32 84 85 C80.84453684 87.10364211 80.43912739 87.26411176 76.9375 86.8125 C76.24527344 86.73644531 75.55304688 86.66039062 74.83984375 86.58203125 C73 86 73 86 71 83 C70.375 79.9375 70.375 79.9375 71 76 C72.85782089 73.35335957 74.90426301 70.9564447 77.01953125 68.51171875 C79.67125068 65.14868997 80.79135828 62.07916581 82 58 C82.66 58 83.32 58 84 58 C84.18175781 57.45472656 84.36351562 56.90945313 84.55078125 56.34765625 C85.08125006 54.75624981 85.61256417 53.16512499 86.14453125 51.57421875 C86.68991801 49.93307776 87.22959533 48.29002058 87.76171875 46.64453125 C88.90469289 43.13094407 90.08810852 39.80683901 91.625 36.4375 C92.75972053 33.60069869 93.25249101 31.76030475 93.5625 28.8125 C94 25 94 25 95.01953125 23.05859375 C96.18243079 20.61696803 96.20402782 18.93694597 96.125 16.25 C96.10695313 15.45078125 96.08890625 14.6515625 96.0703125 13.828125 C96.04710937 13.22484375 96.02390625 12.6215625 96 12 C94.96359375 12.16242187 93.9271875 12.32484375 92.859375 12.4921875 C81.70889682 13.87743128 70.21120851 13.13073847 59 13 C58.03819824 12.99274902 57.07639648 12.98549805 56.08544922 12.97802734 C20.58303537 12.58303537 20.58303537 12.58303537 13 5 C11.18422581 4.43957587 9.34693415 3.94715248 7.5 3.5 C2.22222222 2.22222222 2.22222222 2.22222222 0 0 Z " fill="#D4B1E4" transform="translate(253,528)"/>
<path d="M0 0 C0.66 0.33 1.32 0.66 2 1 C2.4981313 10.96262606 -0.14252122 19.76158479 -3.375 29.10546875 C-4.39216119 32.18873861 -4.89467486 35.2978324 -5.375 38.5 C-6.37720837 42.5088335 -8.4548661 45.33923164 -11.0625 48.5 C-13.00994296 51.01282963 -13.93759781 53.02527386 -15 56 C-17.64644351 62.67364017 -17.64644351 62.67364017 -19.625 64.5 C-21.86717432 66.94600835 -21.69830261 69.80200762 -22 73 C-16.97732766 71.89330948 -13.39660787 70.71555192 -9 68 C-8.34 68.33 -7.68 68.66 -7 69 C-9.475 69.99 -9.475 69.99 -12 71 C-12 71.66 -12 72.32 -12 73 C-15.15546316 75.10364211 -15.56087261 75.26411176 -19.0625 74.8125 C-19.75472656 74.73644531 -20.44695312 74.66039062 -21.16015625 74.58203125 C-23 74 -23 74 -25 71 C-25.625 67.9375 -25.625 67.9375 -25 64 C-23.14217911 61.35335957 -21.09573699 58.9564447 -18.98046875 56.51171875 C-16.32874932 53.14868997 -15.20864172 50.07916581 -14 46 C-13.34 46 -12.68 46 -12 46 C-11.81824219 45.45472656 -11.63648438 44.90945313 -11.44921875 44.34765625 C-10.91874994 42.75624981 -10.38743583 41.16512499 -9.85546875 39.57421875 C-9.31008199 37.93307776 -8.77040467 36.29002058 -8.23828125 34.64453125 C-7.09530711 31.13094407 -5.91189148 27.80683901 -4.375 24.4375 C-3.24027947 21.60069869 -2.74750899 19.76030475 -2.4375 16.8125 C-2 13 -2 13 -0.98046875 11.05859375 C0.18243079 8.61696803 0.20402782 6.93694597 0.125 4.25 C0.09792969 3.05117188 0.09792969 3.05117188 0.0703125 1.828125 C0.04710937 1.22484375 0.02390625 0.6215625 0 0 Z " fill="#DBBFEC" transform="translate(349,540)"/>
<path d="M0 0 C-1.65 0.33 -3.3 0.66 -5 1 C-5 1.66 -5 2.32 -5 3 C-6.05058594 3.38671875 -7.10117187 3.7734375 -8.18359375 4.171875 C-22.67247836 9.39951736 -22.67247836 9.39951736 -36 17 C-36.763125 17.350625 -37.52625 17.70125 -38.3125 18.0625 C-40.35897871 18.95072841 -40.35897871 18.95072841 -41 22 C-40.34 22.66 -39.68 23.32 -39 24 C-39.55461914 24.13575439 -40.10923828 24.27150879 -40.68066406 24.41137695 C-43.20628619 25.03538836 -45.72805953 25.67377923 -48.25 26.3125 C-49.55904297 26.63250977 -49.55904297 26.63250977 -50.89453125 26.95898438 C-51.73886719 27.17490234 -52.58320313 27.39082031 -53.453125 27.61328125 C-54.22817383 27.80704346 -55.00322266 28.00080566 -55.80175781 28.20043945 C-58.26747922 29.09728948 -59.98385916 30.33929435 -62 32 C-62.66 31.67 -63.32 31.34 -64 31 C-61.90409453 27.8561418 -60.09889639 26.7977591 -56.84375 25.0234375 C-54.1194838 23.51123889 -51.58439358 21.73949568 -49 20 C-38.57782763 13.0072744 -12.87554389 -3.99585845 0 0 Z " fill="#8C53A7" transform="translate(350,223)"/>
<path d="M0 0 C2.475 0.495 2.475 0.495 5 1 C5 1.66 5 2.32 5 3 C4.34 3 3.68 3 3 3 C3 3.66 3 4.32 3 5 C3.66 5 4.32 5 5 5 C5 5.99 5 6.98 5 8 C2.35261084 9.4606285 1.10551666 10 -2 10 C-4.93355306 13.11134416 -6.51345212 16.03587231 -8 20 C-9.375 22.8125 -9.375 22.8125 -11 25 C-12.32 25 -13.64 25 -15 25 C-15 25.66 -15 26.32 -15 27 C-17.31 27.33 -19.62 27.66 -22 28 C-20.65614477 23.83115878 -19.00457634 21.80770403 -15.625 19.0625 C-12.00655209 15.98826666 -9.49725281 13.06959717 -7 9 C-5.66666667 7.66666667 -4.33333333 6.33333333 -3 5 C-1.95650161 3.36021682 -0.94392019 1.69905634 0 0 Z " fill="#AC81C2" transform="translate(396,370)"/>
<path d="M0 0 C3.61497739 1.47158371 5.40591511 3.41462331 7.75 6.5 C8.36359375 7.2940625 8.9771875 8.088125 9.609375 8.90625 C11 11 11 11 11 13 C10.34 13 9.68 13 9 13 C9 23.23 9 33.46 9 44 C8.01 44.495 8.01 44.495 7 45 C6.96559814 44.35675781 6.93119629 43.71351563 6.89575195 43.05078125 C6.19612559 30.88487532 5.25459642 19.62735851 1.0234375 8.14453125 C0.0621717 5.19102374 -0.2198349 3.07190351 0 0 Z " fill="#905FAD" transform="translate(401,293)"/>
<path d="M0 0 C0.66 0.33 1.32 0.66 2 1 C1.505 1.433125 1.01 1.86625 0.5 2.3125 C-1.33218192 3.99740483 -1.33218192 3.99740483 -1 7 C-1.99 7.33 -2.98 7.66 -4 8 C-4 9.32 -4 10.64 -4 12 C-4.66 12 -5.32 12 -6 12 C-6 13.32 -6 14.64 -6 16 C-6.66 16.33 -7.32 16.66 -8 17 C-8.76417962 19.21408021 -8.76417962 19.21408021 -9.375 21.8125 C-10.51968042 25.83326189 -11.38120154 28.5874677 -15 31 C-16.32 31 -17.64 31 -19 31 C-19 30.01 -19 29.02 -19 28 C-19.66 28 -20.32 28 -21 28 C-19.88233946 24.64701839 -18.45275901 23.45275901 -16 21 C-16 20.34 -16 19.68 -16 19 C-15.01 18.67 -14.02 18.34 -13 18 C-12.72414062 17.12085938 -12.44828125 16.24171875 -12.1640625 15.3359375 C-10.69678614 11.13105826 -8.43553611 8.77098255 -5.375 5.625 C-4.859375 5.07972656 -4.34375 4.53445312 -3.8125 3.97265625 C-2.55023605 2.64026652 -1.27628255 1.31896759 0 0 Z " fill="#8046A1" transform="translate(214,120)"/>
<path d="M0 0 C15.74948271 -0.26501533 30.83302042 10.42593883 44 18 C44 18.66 44 19.32 44 20 C45.32 20.33 46.64 20.66 48 21 C48.33 19.68 48.66 18.36 49 17 C50.57554035 19.88628401 51.46276373 22.53342384 52.125 25.75 C52.37636719 26.94882813 52.37636719 26.94882813 52.6328125 28.171875 C52.75398437 28.77515625 52.87515625 29.3784375 53 30 C51.35 29.67 49.7 29.34 48 29 C48 28.34 48 27.68 48 27 C47.34 27 46.68 27 46 27 C46 25.68 46 24.36 46 23 C31.39171483 14.31027779 31.39171483 14.31027779 16.125 6.875 C15.50302734 6.60486084 14.88105469 6.33472168 14.24023438 6.05639648 C11.24772048 4.80313883 8.31033906 3.80960281 5.1796875 2.9453125 C2 2 2 2 0 0 Z " fill="#8E59AB" transform="translate(470,225)"/>
<path d="M0 0 C0.99 0.33 1.98 0.66 3 1 C2.38427871 7.58184826 -0.66715081 12.85082918 -3.5859375 18.66015625 C-6.36065718 24.30999666 -8.37291938 29.91977194 -10 36 C-10.99 36 -11.98 36 -13 36 C-13.33 37.32 -13.66 38.64 -14 40 C-14 36.04 -14 32.08 -14 28 C-13.34 28 -12.68 28 -12 28 C-10.35 24.04 -8.7 20.08 -7 16 C-6.34 16 -5.68 16 -5 16 C-5.04125 14.7625 -5.0825 13.525 -5.125 12.25 C-5.13658291 8.98362038 -4.8568702 6.7853053 -3 4 C-2.01 4 -1.02 4 0 4 C0 2.68 0 1.36 0 0 Z " fill="#571E7C" transform="translate(309,65)"/>
<path d="M0 0 C-0.99 0.495 -0.99 0.495 -2 1 C-2.46651207 3.12576782 -2.46651207 3.12576782 -2.625 5.5625 C-2.69976562 6.38878906 -2.77453125 7.21507813 -2.8515625 8.06640625 C-2.90054687 8.70449219 -2.94953125 9.34257813 -3 10 C-3.99 10 -4.98 10 -6 10 C-6.33 9.34 -6.66 8.68 -7 8 C-7.78375 8.66 -8.5675 9.32 -9.375 10 C-12 12 -12 12 -14 12 C-15.36161311 12.96113866 -16.69855198 13.95884159 -18 15 C-17.11785113 17.88214887 -17.11785113 17.88214887 -16 20 C-15.34 20 -14.68 20 -14 20 C-14 20.66 -14 21.32 -14 22 C-14.99 22 -15.98 22 -17 22 C-17 21.34 -17 20.68 -17 20 C-19.97 20.33 -22.94 20.66 -26 21 C-25.505 19.515 -25.505 19.515 -25 18 C-24.01 18 -23.02 18 -22 18 C-21.95875 17.29875 -21.9175 16.5975 -21.875 15.875 C-20.64523704 11.83435026 -18.21485137 9.64800101 -15 7 C-13.68252676 6.30251417 -12.35085807 5.63040043 -11 5 C-9.64691687 3.68671343 -8.31129922 2.35500919 -7 1 C-4.53721199 -0.231394 -2.7204945 -0.07159196 0 0 Z " fill="#5F2D82" transform="translate(259,85)"/>
<path d="M0 0 C3.875 0.4375 3.875 0.4375 5.875 2.4375 C6.57823535 7.71554594 5.01346681 10.50568358 2.0625 14.8125 C1.35480469 15.87210938 0.64710938 16.93171875 -0.08203125 18.0234375 C-0.75621094 18.82007812 -1.43039062 19.61671875 -2.125 20.4375 C-3.115 20.4375 -4.105 20.4375 -5.125 20.4375 C-4.87363281 19.53257813 -4.87363281 19.53257813 -4.6171875 18.609375 C-4.41351563 17.81015625 -4.20984375 17.0109375 -4 16.1875 C-3.79117187 15.39859375 -3.58234375 14.6096875 -3.3671875 13.796875 C-3.08185589 11.0171929 -3.67522106 9.77862451 -5.125 7.4375 C-4.465 7.1075 -3.805 6.7775 -3.125 6.4375 C-2.135 7.4275 -1.145 8.4175 -0.125 9.4375 C-0.125 8.4475 -0.125 7.4575 -0.125 6.4375 C-0.125 5.7775 -0.125 5.1175 -0.125 4.4375 C-2.765 4.7675 -5.405 5.0975 -8.125 5.4375 C-5.85564261 1.65523769 -4.39819944 0.07197054 0 0 Z " fill="#511E77" transform="translate(317.125,44.5625)"/>
<path d="M0 0 C0.99 0.33 1.98 0.66 3 1 C-0.52578177 4.86698646 -4.26608771 7.6197603 -8.66015625 10.44921875 C-10.94046753 11.96054359 -13.09038165 13.57211127 -15.25 15.25 C-17.40760276 16.90118318 -19.01621118 18.00632631 -21.5625 19 C-24.0611995 20.02510749 -25.32993402 21.07997404 -27.3125 22.875 C-30.79516489 25.98343116 -34.53934545 28.51311515 -39 30 C-39.66 29.67 -40.32 29.34 -41 29 C-39.73083275 26.46166551 -38.58375191 26.10599099 -36.0625 24.875 C-35.35222656 24.52179687 -34.64195312 24.16859375 -33.91015625 23.8046875 C-32 23 -32 23 -30 23 C-30 22.34 -30 21.68 -30 21 C-29.01 20.67 -28.02 20.34 -27 20 C-26.071875 19.01 -26.071875 19.01 -25.125 18 C-22.71248065 15.72939356 -21.23922825 15.35991425 -18 15 C-18 14.34 -18 13.68 -18 13 C-14.09525734 9.43437891 -9.96632985 6.80593813 -5 5 C-4.67 4.34 -4.34 3.68 -4 3 C-3.01 3 -2.02 3 -1 3 C-0.67 2.01 -0.34 1.02 0 0 Z " fill="#D9BAE9" transform="translate(383,578)"/>
<path d="M0 0 C0.33 1.32 0.66 2.64 1 4 C-2.65333143 6.63379708 -5.48521602 8.46884894 -10 9 C-10 9.66 -10 10.32 -10 11 C-11.32 11 -12.64 11 -14 11 C-16.35910353 15.2637281 -16.35910353 15.2637281 -17 20 C-17.66 20 -18.32 20 -19 20 C-19 19.34 -19 18.68 -19 18 C-19.66 18 -20.32 18 -21 18 C-20.75 16.125 -20.75 16.125 -20 14 C-18.66666667 13.33333333 -17.33333333 12.66666667 -16 12 C-15.90332031 11.40703125 -15.80664062 10.8140625 -15.70703125 10.203125 C-14.64219263 6.88506433 -12.4801588 5.74739835 -9.6875 3.75 C-8.72199219 3.04359375 -7.75648438 2.3371875 -6.76171875 1.609375 C-4 0 -4 0 0 0 Z " fill="#4E1E79" transform="translate(284,65)"/>
<path d="M0 0 C0.99 0.33 1.98 0.66 3 1 C2.01 2.65 1.02 4.3 0 6 C0.66 6.66 1.32 7.32 2 8 C1.44538086 8.13575439 0.89076172 8.27150879 0.31933594 8.41137695 C-2.20628619 9.03538836 -4.72805953 9.67377923 -7.25 10.3125 C-8.12269531 10.52583984 -8.99539063 10.73917969 -9.89453125 10.95898438 C-10.73886719 11.17490234 -11.58320313 11.39082031 -12.453125 11.61328125 C-13.22817383 11.80704346 -14.00322266 12.00080566 -14.80175781 12.20043945 C-17.26747922 13.09728948 -18.98385916 14.33929435 -21 16 C-21.66 15.67 -22.32 15.34 -23 15 C-18.9054726 8.85820889 -10.49504484 6.03556884 -3.625 4 C-2.75875 3.67 -1.8925 3.34 -1 3 C-0.67 2.01 -0.34 1.02 0 0 Z " fill="#9C6AB5" transform="translate(309,239)"/>
<path d="M0 0 C1.12604443 3.4873764 0.95775125 6.4337127 0.625 10.0625 C0.53476563 11.10535156 0.44453125 12.14820313 0.3515625 13.22265625 C0 16 0 16 -1 19 C-0.979375 20.258125 -0.95875 21.51625 -0.9375 22.8125 C-0.88918569 26.60172239 -1.66116902 29.42978405 -3 33 C-3.71481423 35.65640422 -4.35444177 38.32554447 -5 41 C-5.33 41 -5.66 41 -6 41 C-6.1749976 36.97505512 -5.96029481 33.49284616 -5.0625 29.5625 C-4.05780698 25.00649622 -3.76295768 20.52250946 -3.5625 15.875 C-3.29755802 10.04423832 -2.53513568 5.29071794 0 0 Z " fill="#763E95" transform="translate(118,279)"/>
<path d="M0 0 C0 4.84231606 -2.98727887 7.86813521 -6.125 11.375 C-8 13 -8 13 -10 13 C-10.2475 13.61875 -10.495 14.2375 -10.75 14.875 C-12.20628639 17.35068687 -13.37812506 17.95125002 -16 19 C-16.48979592 11.65306122 -16.48979592 11.65306122 -14.125 8.5 C-12 7 -12 7 -10 7 C-10 7.99 -10 8.98 -10 10 C-9.38125 9.34 -8.7625 8.68 -8.125 8 C-6 6 -6 6 -4 6 C-3.566875 5.071875 -3.566875 5.071875 -3.125 4.125 C-2 2 -2 2 0 0 Z " fill="#DAB8EB" transform="translate(454,513)"/>
<path d="M0 0 C0.33 0 0.66 0 1 0 C1.05455124 2.66694948 1.09393392 5.33275498 1.125 8 C1.14175781 8.74378906 1.15851563 9.48757813 1.17578125 10.25390625 C1.18222656 10.99511719 1.18867187 11.73632812 1.1953125 12.5 C1.20578613 13.1703125 1.21625977 13.840625 1.22705078 14.53125 C1 17 1 17 0.01367188 20.74023438 C-1.11774881 25.072301 -1.34499587 29.19479853 -1.4140625 33.65625 C-1.43342865 34.44398804 -1.4527948 35.23172607 -1.4727478 36.04333496 C-1.53193546 38.52878412 -1.57868226 41.01428115 -1.625 43.5 C-1.66323595 45.19793548 -1.70229084 46.89585273 -1.7421875 48.59375 C-1.8375858 52.7290164 -1.92183742 56.86437338 -2 61 C-2.33 61 -2.66 61 -3 61 C-3.02467203 55.05517888 -3.04284663 49.1103874 -3.05493164 43.16552734 C-3.05996831 41.14208457 -3.06679789 39.11864544 -3.07543945 37.09521484 C-3.08753412 34.19107157 -3.09323488 31.28697631 -3.09765625 28.3828125 C-3.10539818 27.02024826 -3.10539818 27.02024826 -3.11329651 25.63015747 C-3.11337204 24.78943695 -3.11344757 23.94871643 -3.11352539 23.08251953 C-3.115746 22.34083527 -3.11796661 21.599151 -3.12025452 20.83499146 C-3 19 -3 19 -2 17 C-1.79413422 14.87843877 -1.63385378 12.75231896 -1.5 10.625 C-1.26856896 6.96343029 -1.04234665 3.52660615 0 0 Z " fill="#A27AB3" transform="translate(114,288)"/>
<path d="M0 0 C4.52981712 1.70534292 8.80636334 3.82888212 13.125 6 C13.84042969 6.35578125 14.55585938 6.7115625 15.29296875 7.078125 C15.98261719 7.42359375 16.67226562 7.7690625 17.3828125 8.125 C18.00559082 8.43695313 18.62836914 8.74890625 19.27001953 9.0703125 C21 10 21 10 24 12 C24 12.66 24 13.32 24 14 C24.99 13.67 25.98 13.34 27 13 C28.32 14.65 29.64 16.3 31 18 C26.61110675 17.33501617 23.0188515 15.81242323 19 14 C19 13.34 19 12.68 19 12 C16.525 11.505 16.525 11.505 14 11 C13.67 10.01 13.34 9.02 13 8 C11.15216052 7.37729829 11.15216052 7.37729829 9 7 C7.58587846 6.41756033 6.18907946 5.79133677 4.8125 5.125 C4.11769531 4.79757812 3.42289063 4.47015625 2.70703125 4.1328125 C1 3 1 3 0 0 Z " fill="#D4B6E3" transform="translate(200,501)"/>
<path d="M0 0 C1.52194825 2.41721193 2.01261321 3.73512258 1.875 6.625 C1.58625 7.40875 1.2975 8.1925 1 9 C0.37867188 9.27328125 -0.24265625 9.5465625 -0.8828125 9.828125 C-3.74775398 11.41388596 -4.39255127 13.18386108 -5.75 16.125 C-6.17796875 17.03507812 -6.6059375 17.94515625 -7.046875 18.8828125 C-7.36140625 19.58148438 -7.6759375 20.28015625 -8 21 C-8.66 21 -9.32 21 -10 21 C-8.77248695 14.08129006 -6.80291467 7.96956042 -3 2 C-2.01 1.34 -1.02 0.68 0 0 Z " fill="#8650A3" transform="translate(142,219)"/>
<path d="M0 0 C0.66 0.33 1.32 0.66 2 1 C2.61910226 13.38204516 -1.13844648 26.11425775 -7 37 C-7.33 37 -7.66 37 -8 37 C-7.67429386 32.44011402 -7.20532555 29.02711622 -5 25 C-3.45793046 22.18211753 -2.69495179 19.94951791 -2.375 16.75 C-2 13 -2 13 -0.984375 11.0625 C0.18221957 8.61820662 0.20413996 6.94075877 0.125 4.25 C0.09792969 3.05117188 0.09792969 3.05117188 0.0703125 1.828125 C0.04710937 1.22484375 0.02390625 0.6215625 0 0 Z " fill="#E2CCED" transform="translate(349,540)"/>
<path d="M0 0 C-0.68707031 0.33773437 -1.37414062 0.67546875 -2.08203125 1.0234375 C-2.98308594 1.46945313 -3.88414062 1.91546875 -4.8125 2.375 C-5.70582031 2.81585938 -6.59914063 3.25671875 -7.51953125 3.7109375 C-10.14556381 5.01866905 -10.14556381 5.01866905 -13 7 C-14.2375 6.9690625 -14.2375 6.9690625 -15.5 6.9375 C-18.0184167 6.73383956 -18.0184167 6.73383956 -19.5 8.3125 C-19.995 8.869375 -20.49 9.42625 -21 10 C-23.5625 11.75 -23.5625 11.75 -26 13 C-26.66 12.67 -27.32 12.34 -28 12 C-22.08817854 6.8764214 -8.25546814 -4.12773407 0 0 Z " fill="#925BAD" transform="translate(327,233)"/>
<path d="M0 0 C0.33 1.32 0.66 2.64 1 4 C-0.32 4.33 -1.64 4.66 -3 5 C-2.67 5.99 -2.34 6.98 -2 8 C-3.1446875 8.8353125 -3.1446875 8.8353125 -4.3125 9.6875 C-6.97735248 11.98051259 -8.22805206 14.01990573 -10 17 C-10.99 17.33 -11.98 17.66 -13 18 C-12.55491959 12.95575532 -10.39019075 10.55556591 -7 7 C-6.34 7 -5.68 7 -5 7 C-4.731875 6.401875 -4.46375 5.80375 -4.1875 5.1875 C-3.01506533 3.02775192 -1.80630718 1.64209744 0 0 Z " fill="#8B59A8" transform="translate(201,134)"/>
<path d="M0 0 C3.67382324 0.57768599 6.41176606 1.57691608 9.625 3.4375 C10.38039063 3.86933594 11.13578125 4.30117187 11.9140625 4.74609375 C13.63898854 5.78298749 15.32542391 6.88361594 17 8 C16.67 8.99 16.34 9.98 16 11 C13.03 10.505 13.03 10.505 10 10 C10 9.01 10 8.02 10 7 C9.34 7 8.68 7 8 7 C8 6.34 8 5.68 8 5 C7.236875 4.896875 6.47375 4.79375 5.6875 4.6875 C2.82503132 3.95524057 1.80432431 3.27914649 0 1 C0 0.67 0 0.34 0 0 Z " fill="#5F2B85" transform="translate(428,146)"/>
<path d="M0 0 C2.97 0.495 2.97 0.495 6 1 C5.03644647 10.41002278 5.03644647 10.41002278 4 15 C1.73625389 12.73625389 1.51648574 11.68987631 0.875 8.625 C0.70742187 7.85414063 0.53984375 7.08328125 0.3671875 6.2890625 C0 4 0 4 0 0 Z " fill="#9164AC" transform="translate(115,371)"/>
<path d="M0 0 C0 0.66 0 1.32 0 2 C-1.28197266 2.52400391 -1.28197266 2.52400391 -2.58984375 3.05859375 C-3.69457031 3.51363281 -4.79929687 3.96867187 -5.9375 4.4375 C-7.03964844 4.88996094 -8.14179688 5.34242188 -9.27734375 5.80859375 C-11.86568916 6.74424608 -11.86568916 6.74424608 -13 8 C-15.375 8.25 -15.375 8.25 -18 8 C-19.6640625 6.484375 -19.6640625 6.484375 -21 5 C-17.87605609 4.16267257 -14.75068026 3.33082018 -11.625 2.5 C-10.73554688 2.26152344 -9.84609375 2.02304687 -8.9296875 1.77734375 C-8.07890625 1.55175781 -7.228125 1.32617188 -6.3515625 1.09375 C-5.56604004 0.88427734 -4.78051758 0.67480469 -3.97119141 0.45898438 C-2 0 -2 0 0 0 Z " fill="#A980BF" transform="translate(361,405)"/>
<path d="M0 0 C0.66 0.33 1.32 0.66 2 1 C0.68 2.32 -0.64 3.64 -2 5 C-1.11785113 7.88214887 -1.11785113 7.88214887 0 10 C0.66 10 1.32 10 2 10 C2 10.66 2 11.32 2 12 C1.01 12 0.02 12 -1 12 C-1 11.34 -1 10.68 -1 10 C-5.455 10.495 -5.455 10.495 -10 11 C-9.67 10.01 -9.34 9.02 -9 8 C-8.01 8 -7.02 8 -6 8 C-5.938125 7.4225 -5.87625 6.845 -5.8125 6.25 C-4.67972699 3.11309013 -2.65802405 1.90832496 0 0 Z " fill="#551D7B" transform="translate(243,95)"/>
<path d="M0 0 C4.21228561 1.56010578 6.34546845 4.4845393 9 8 C9.33 8.99 9.66 9.98 10 11 C11.49580659 12.20314878 12.99256864 13.40519835 14.5 14.59375 C16.75013033 16.70324718 17.82326265 19.18890523 19 22 C18.34 22 17.68 22 17 22 C14 18.53846154 14 18.53846154 14 16 C13.13375 15.62875 13.13375 15.62875 12.25 15.25 C8.71832902 13.28796057 6.48157614 11.23403886 5 7.4375 C3.82628407 4.57656741 2.48418929 3.73893251 0 2 C0 1.34 0 0.68 0 0 Z " fill="#DEC5EA" transform="translate(154,457)"/>
<path d="M0 0 C1.0625 1.8125 1.0625 1.8125 2 4 C1.67 4.99 1.34 5.98 1 7 C-3.571279 6.45144652 -7.67435795 5.58255197 -12 4 C-11.67 3.34 -11.34 2.68 -11 2 C-6.52459016 0.73770492 -6.52459016 0.73770492 -4 2 C-1.88316159 1.10836423 -1.88316159 1.10836423 0 0 Z " fill="#A272B7" transform="translate(350,243)"/>
<path d="M0 0 C5.87274788 3.46341541 10.28061253 8.12615985 15 13 C16.33104435 14.33561839 17.66364667 15.66969352 19 17 C14.99753372 16.44538573 12.96766413 14.45372748 10.0625 11.75 C9.18980469 10.93917969 8.31710938 10.12835938 7.41796875 9.29296875 C6.62003906 8.53628906 5.82210937 7.77960938 5 7 C4.12794922 6.18982422 4.12794922 6.18982422 3.23828125 5.36328125 C2.11231624 4.28893641 1.04686864 3.1515555 0 2 C0 1.34 0 0.68 0 0 Z " fill="#DDC3EB" transform="translate(176,480)"/>
<path d="M0 0 C0.66 0 1.32 0 2 0 C2 0.66 2 1.32 2 2 C2.66 2.33 3.32 2.66 4 3 C3.52949219 3.39832031 3.05898438 3.79664063 2.57421875 4.20703125 C1.95160156 4.73683594 1.32898438 5.26664062 0.6875 5.8125 C0.07261719 6.33457031 -0.54226563 6.85664063 -1.17578125 7.39453125 C-2.85424679 8.87172469 -4.43882034 10.40039131 -6 12 C-6 11.34 -6 10.68 -6 10 C-6.66 10 -7.32 10 -8 10 C-7.67 7.69 -7.34 5.38 -7 3 C-7.66 3 -8.32 3 -9 3 C-9 2.34 -9 1.68 -9 1 C-8.01 1.33 -7.02 1.66 -6 2 C-5.67 2.99 -5.34 3.98 -5 5 C-5.33 5.66 -5.66 6.32 -6 7 C-4.35 5.68 -2.7 4.36 -1 3 C-0.34 3.33 0.32 3.66 1 4 C0.67 2.68 0.34 1.36 0 0 Z " fill="#76419A" transform="translate(266,263)"/>
<path d="M0 0 C0 4.30235793 -2.1094661 5.89378036 -4.91796875 8.98828125 C-7.89937871 11.86900569 -11.15711706 14.3833389 -15 16 C-15.66 15.67 -16.32 15.34 -17 15 C-16.236875 14.401875 -15.47375 13.80375 -14.6875 13.1875 C-12.15060218 11.19856106 -12.15060218 11.19856106 -10.58984375 9.58984375 C-8.75833324 7.75833324 -6.83172601 6.07179193 -4.875 4.375 C-2.38509932 2.24398756 -2.38509932 2.24398756 0 0 Z " fill="#E8DBEC" transform="translate(419,550)"/>
<path d="M0 0 C0 6.66733982 -3.73386967 11.27266639 -8 16 C-8.66 14.68 -9.32 13.36 -10 12 C-6.94580156 7.54959656 -3.9252025 3.70090521 0 0 Z " fill="#D6B5E4" transform="translate(505,440)"/>
<path d="M0 0 C1.67542976 0.28604898 3.34385343 0.61781233 5 1 C5 1.66 5 2.32 5 3 C4.34 3 3.68 3 3 3 C3 3.66 3 4.32 3 5 C3.66 5 4.32 5 5 5 C5 5.99 5 6.98 5 8 C3.1875 9.0625 3.1875 9.0625 1 10 C0.01 9.67 -0.98 9.34 -2 9 C-1.125 1.125 -1.125 1.125 0 0 Z " fill="#A270BA" transform="translate(396,370)"/>
<path d="M0 0 C0.66 0.33 1.32 0.66 2 1 C1.505 1.433125 1.01 1.86625 0.5 2.3125 C-1.33218192 3.99740483 -1.33218192 3.99740483 -1 7 C-1.99 7.33 -2.98 7.66 -4 8 C-4 9.32 -4 10.64 -4 12 C-5.32 12 -6.64 12 -8 12 C-8 12.99 -8 13.98 -8 15 C-8.99 14.67 -9.98 14.34 -11 14 C-7.80173015 8.88276824 -4.04165813 4.47307108 0 0 Z " fill="#78439B" transform="translate(214,120)"/>
<path d="M0 0 C0.33 0.66 0.66 1.32 1 2 C0.29296875 3.953125 0.29296875 3.953125 -0.8125 6.25 C-2.46064671 9.78011354 -3.85216114 13.26952372 -5 17 C-5.66 17 -6.32 17 -7 17 C-7.12375 17.804375 -7.2475 18.60875 -7.375 19.4375 C-7.684375 20.7059375 -7.684375 20.7059375 -8 22 C-8.66 22.33 -9.32 22.66 -10 23 C-8.515 17.555 -8.515 17.555 -7 12 C-6.34 12 -5.68 12 -5 12 C-4.9175 11.319375 -4.835 10.63875 -4.75 9.9375 C-3.77667472 6.1253093 -2.04192545 3.35929671 0 0 Z " fill="#D3B3E2" transform="translate(522,405)"/>
<path d="M0 0 C1.32 1.32 2.64 2.64 4 4 C3.34 4.66 2.68 5.32 2 6 C2.33 6.33 2.66 6.66 3 7 C3.04080783 8.99958364 3.04254356 11.00045254 3 13 C1.35 12.67 -0.3 12.34 -2 12 C-1 3.42857143 -1 3.42857143 0 0 Z " fill="#9A6AB4" transform="translate(406,344)"/>
<path d="M0 0 C-1.18112752 5.47613669 -2.52664097 8.3094788 -7 12 C-7.66 12 -8.32 12 -9 12 C-8.39288519 7.87161932 -7.12477683 4.59577618 -5 1 C-2 0 -2 0 0 0 Z " fill="#D8B4EA" transform="translate(464,501)"/>
<path d="M0 0 C0 7.15064308 -5.41848476 12.05447396 -10 17 C-10 13.80601677 -9.48985551 12.73140176 -8 10 C-7.731875 9.360625 -7.46375 8.72125 -7.1875 8.0625 C-5.55886839 5.23382405 -3.3569821 3.23611122 -1 1 C-0.67 0.67 -0.34 0.34 0 0 Z " fill="#D9BBE8" transform="translate(490,465)"/>
<path d="M0 0 C0.66 0.33 1.32 0.66 2 1 C1.43417868 4.96074927 0.30304271 7.72259306 -2 11 C-2.99 11.66 -3.98 12.32 -5 13 C-4.53199289 8.94393835 -4.12046792 5.53411321 -2 2 C-1.34 2 -0.68 2 0 2 C0 1.34 0 0.68 0 0 Z " fill="#CEA3E6" transform="translate(342,575)"/>
<path d="M0 0 C0.33 0.66 0.66 1.32 1 2 C1.66 2 2.32 2 3 2 C2.34 4.64 1.68 7.28 1 10 C0.01 10 -0.98 10 -2 10 C-2.33 11.32 -2.66 12.64 -3 14 C-3 10.04 -3 6.08 -3 2 C-2.34 2 -1.68 2 -1 2 C-0.67 1.34 -0.34 0.68 0 0 Z " fill="#69308A" transform="translate(298,91)"/>
<path d="M0 0 C2.96783129 1.45668783 5.86415313 3.01232086 8.75 4.625 C9.94882812 5.29402344 9.94882812 5.29402344 11.171875 5.9765625 C11.77515625 6.31429688 12.3784375 6.65203125 13 7 C12.01 7.495 12.01 7.495 11 8 C10.67 8.66 10.34 9.32 10 10 C7.525 9.01 7.525 9.01 5 8 C5 7.34 5 6.68 5 6 C4.34 5.67 3.68 5.34 3 5 C2.67 4.01 2.34 3.02 2 2 C1.34 2 0.68 2 0 2 C0 1.34 0 0.68 0 0 Z " fill="#976DB0" transform="translate(278,398)"/>
<path d="M0 0 C0.66 0.33 1.32 0.66 2 1 C2 2.65 2 4.3 2 6 C2.99 6 3.98 6 5 6 C5.33 8.31 5.66 10.62 6 13 C3.09197539 10.78071806 1.04687238 9.07030857 -1 6 C-0.625 2.8125 -0.625 2.8125 0 0 Z " fill="#6D3C8F" transform="translate(242,353)"/>
<path d="M0 0 C0.99 0.33 1.98 0.66 3 1 C3.9140625 3.84375 3.9140625 3.84375 4.625 7.5 C4.87121094 8.76070313 5.11742187 10.02140625 5.37109375 11.3203125 C6.09377631 15.54867881 6.63165214 19.72716479 7 24 C4.67688073 20.5153211 3.88758955 17.13488366 2.9375 13.125 C2.76412109 12.41730469 2.59074219 11.70960938 2.41210938 10.98046875 C1.52617697 7.33490781 0.70099601 3.68564912 0 0 Z " fill="#9B6FB4" transform="translate(523,259)"/>
<path d="M0 0 C0 2.31 0 4.62 0 7 C-0.61875 7.2475 -1.2375 7.495 -1.875 7.75 C-4.35068687 9.20628639 -4.95125002 10.37812506 -6 13 C-6.99 12.67 -7.98 12.34 -9 12 C-8.34 11.34 -7.68 10.68 -7 10 C-6.525625 8.865625 -6.05125 7.73125 -5.5625 6.5625 C-2.68421053 0 -2.68421053 0 0 0 Z " fill="#784097" transform="translate(165,183)"/>
<path d="M0 0 C0.33 0.66 0.66 1.32 1 2 C1.66 2 2.32 2 3 2 C3 2.66 3 3.32 3 4 C1.68 4 0.36 4 -1 4 C-3.35910353 8.2637281 -3.35910353 8.2637281 -4 13 C-4.66 13 -5.32 13 -6 13 C-6 12.34 -6 11.68 -6 11 C-6.66 11 -7.32 11 -8 11 C-7.75 9.125 -7.75 9.125 -7 7 C-5.66666667 6.33333333 -4.33333333 5.66666667 -3 5 C-2.34786708 2.97536745 -2.34786708 2.97536745 -2 1 C-1.34 0.67 -0.68 0.34 0 0 Z " fill="#582280" transform="translate(271,72)"/>
<path d="M0 0 C1.109375 1.75 1.109375 1.75 2 4 C1.390625 6 1.390625 6 0.25 8 C-0.11609375 8.66 -0.4821875 9.32 -0.859375 10 C-1.23578125 10.66 -1.6121875 11.32 -2 12 C-2.67404321 13.32961948 -3.34290816 14.66192207 -4 16 C-4.33 16 -4.66 16 -5 16 C-4.70887831 9.58076669 -3.54784971 5.37899794 0 0 Z " fill="#794398" transform="translate(127,250)"/>
<path d="M0 0 C0.721875 0.268125 1.44375 0.53625 2.1875 0.8125 C-1.35289134 3.7281164 -4.9751772 6.31377818 -8.8125 8.8125 C-8.46907251 5.72165263 -7.55294345 4.48805431 -5.5625 2 C-2.8125 -0.1875 -2.8125 -0.1875 0 0 Z " fill="#74439B" transform="translate(278.8125,256.1875)"/>
<path d="M0 0 C0.33 0.66 0.66 1.32 1 2 C1.66 2 2.32 2 3 2 C3.33 3.65 3.66 5.3 4 7 C4.66 7 5.32 7 6 7 C6.33 8.32 6.66 9.64 7 11 C6.01 11.495 6.01 11.495 5 12 C2.7522025 9.94766315 1.9977758 8.99332739 1 6 C0.01 6.495 0.01 6.495 -1 7 C-0.67 4.69 -0.34 2.38 0 0 Z " fill="#7A429F" transform="translate(503,215)"/>
<path d="M0 0 C2.06277107 0.14194764 4.12521031 0.28872216 6.1875 0.4375 C7.91033203 0.55931641 7.91033203 0.55931641 9.66796875 0.68359375 C12.51598171 0.95403812 15.21210482 1.37521747 18 2 C17.67 3.32 17.34 4.64 17 6 C15.35 5.67 13.7 5.34 12 5 C12 4.34 12 3.68 12 3 C6.06 2.01 6.06 2.01 0 1 C0 0.67 0 0.34 0 0 Z " fill="#8A5EA2" transform="translate(347,118)"/>
<path d="M0 0 C0.66 0.33 1.32 0.66 2 1 C0.8758824 2.29243468 -0.24932592 3.58392075 -1.375 4.875 C-2.00148438 5.59429687 -2.62796875 6.31359375 -3.2734375 7.0546875 C-4.47426834 8.4076598 -5.7208345 9.7208345 -7 11 C-9.625 11.125 -9.625 11.125 -12 11 C-8.83525695 7.74483572 -5.67247209 4.67991207 -2 2 C-1.34 2 -0.68 2 0 2 C0 1.34 0 0.68 0 0 Z " fill="#663686" transform="translate(267,74)"/>
<path d="M0 0 C0.33 0.66 0.66 1.32 1 2 C1.66 2 2.32 2 3 2 C2.67 3.32 2.34 4.64 2 6 C-4.75 5.25 -4.75 5.25 -7 3 C-6.01 3 -5.02 3 -4 3 C-4 2.34 -4 1.68 -4 1 C-2.68 0.67 -1.36 0.34 0 0 Z " fill="#D4AFE6" transform="translate(251,522)"/>
<path d="M0 0 C3.25524265 3.02272532 5.61820737 6.25718301 8 10 C7.67 10.66 7.34 11.32 7 12 C6.01 12 5.02 12 4 12 C3.3291288 10.3767313 2.66342971 8.75132422 2 7.125 C1.62875 6.22007812 1.2575 5.31515625 0.875 4.3828125 C0 2 0 2 0 0 Z " fill="#7B459D" transform="translate(495,203)"/>
<path d="M0 0 C5.5020223 -0.19230369 9.92089182 -0.3336443 15 2 C17.32597511 2.3813074 19.65912158 2.72460254 22 3 C22 3.33 22 3.66 22 4 C14.37404682 4.45755719 7.3970146 2.74536299 0 1 C0 0.67 0 0.34 0 0 Z " fill="#E4CEEB" transform="translate(278,536)"/>
<path d="M0 0 C2.45823172 3.68734758 3.01242616 6.69699971 4 11 C3.01 11 2.02 11 1 11 C0.01 8.03 -0.98 5.06 -2 2 C-1.34 1.34 -0.68 0.68 0 0 Z " fill="#723E99" transform="translate(515,235)"/>
<path d="M0 0 C1.04005702 3.38018531 1.08004482 6.4780279 1 10 C0.01 10.33 -0.98 10.66 -2 11 C-2.33 11.66 -2.66 12.32 -3 13 C-3.66 13 -4.32 13 -5 13 C-4.54554036 11.58208592 -4.08625056 10.16571954 -3.625 8.75 C-3.24214844 7.56664063 -3.24214844 7.56664063 -2.8515625 6.359375 C-2.04826333 4.13372042 -1.10288338 2.09068328 0 0 Z " fill="#DBCFDF" transform="translate(306,80)"/>
<path d="M0 0 C1.65 0 3.3 0 5 0 C0.78809533 5.08938482 -4.78803418 6.51633852 -11 8 C-10.67 7.01 -10.34 6.02 -10 5 C-7.71484375 4.05078125 -7.71484375 4.05078125 -4.9375 3.3125 C-4.01839844 3.06113281 -3.09929687 2.80976563 -2.15234375 2.55078125 C-1.44207031 2.36902344 -0.73179687 2.18726563 0 2 C0 1.34 0 0.68 0 0 Z " fill="#A26FBB" transform="translate(338,414)"/>
<path d="M0 0 C0 0.66 0 1.32 0 2 C-3.6678852 3.96189209 -6.87248551 5.39301257 -11 6 C-11 5.01 -11 4.02 -11 3 C-9.73160474 2.49384702 -8.46016898 1.99530901 -7.1875 1.5 C-6.12595703 1.08234375 -6.12595703 1.08234375 -5.04296875 0.65625 C-3 0 -3 0 0 0 Z " fill="#A97EBF" transform="translate(373,399)"/>
<path d="M0 0 C0.66 0.33 1.32 0.66 2 1 C0.35 1.66 -1.3 2.32 -3 3 C-3 3.66 -3 4.32 -3 5 C-7.21084037 7.80722691 -9.11554218 6.94537893 -14 6 C-14.33 5.34 -14.66 4.68 -15 4 C-13.824375 4.0825 -12.64875 4.165 -11.4375 4.25 C-6.62789023 4.29271412 -4.02057847 2.49275865 0 0 Z " fill="#EBD6F3" transform="translate(340,608)"/>
<path d="M0 0 C1.12150295 2.81395287 1.00062999 3.99799572 0.07421875 6.9453125 C-0.38339844 7.99460937 -0.84101563 9.04390625 -1.3125 10.125 C-1.98732422 11.70667969 -1.98732422 11.70667969 -2.67578125 13.3203125 C-4 16 -4 16 -6 18 C-6.31777531 13.33929544 -5.85148558 11.59075962 -3 8 C-1.8721769 5.36841276 -0.94679444 2.70512696 0 0 Z " fill="#CF9EE7" transform="translate(448,502)"/>
<path d="M0 0 C0.33 0.66 0.66 1.32 1 2 C3.02463255 2.65213292 3.02463255 2.65213292 5 3 C5 3.66 5 4.32 5 5 C5.66 5 6.32 5 7 5 C7 5.66 7 6.32 7 7 C6.34 7 5.68 7 5 7 C4.67 8.32 4.34 9.64 4 11 C2 8 2 8 2 4 C1.34 4 0.68 4 0 4 C0 2.68 0 1.36 0 0 Z " fill="#C9A9DA" transform="translate(123,400)"/>
<path d="M0 0 C-0.33 0.99 -0.66 1.98 -1 3 C-1.66 3 -2.32 3 -3 3 C-2.67 4.32 -2.34 5.64 -2 7 C-3.65 7.33 -5.3 7.66 -7 8 C-7.25 5.6875 -7.25 5.6875 -7 3 C-4.51960083 0.51960083 -3.55547616 0 0 0 Z " fill="#7D449C" transform="translate(186,157)"/>
<path d="M0 0 C3.9492568 0.55105909 7.34920174 1.38935371 11 3 C11 3.33 11 3.66 11 4 C8.69 4.33 6.38 4.66 4 5 C4 4.34 4 3.68 4 3 C2.02 3 0.04 3 -2 3 C-1.34 2.67 -0.68 2.34 0 2 C0 1.34 0 0.68 0 0 Z " fill="#58257A" transform="translate(375,124)"/>
<path d="M0 0 C0.66 0.33 1.32 0.66 2 1 C-2.66804118 4.62011357 -6.2392897 6.70677932 -12 8 C-11 5 -11 5 -8.56640625 3.578125 C-7.57511719 3.13984375 -6.58382813 2.7015625 -5.5625 2.25 C-4.57378906 1.80140625 -3.58507812 1.3528125 -2.56640625 0.890625 C-1.29603516 0.44976563 -1.29603516 0.44976563 0 0 Z " fill="#E5C9F2" transform="translate(354,600)"/>
<path d="M0 0 C0.33 0 0.66 0 1 0 C1.66 2.97 2.32 5.94 3 9 C1.35 8.67 -0.3 8.34 -2 8 C-2 7.34 -2 6.68 -2 6 C-2.66 6 -3.32 6 -4 6 C-3.67 4.68 -3.34 3.36 -3 2 C-2.34 2 -1.68 2 -1 2 C-0.67 1.34 -0.34 0.68 0 0 Z " fill="#9E70B7" transform="translate(520,246)"/>
<path d="M0 0 C0 4.87140024 -2.99424286 7.93836747 -6.25 11.375 C-6.8275 11.91125 -7.405 12.4475 -8 13 C-8.66 12.67 -9.32 12.34 -10 12 C-8.7260411 9.96166576 -7.38938077 7.96147874 -6 6 C-5.34 6 -4.68 6 -4 6 C-3.71125 5.38125 -3.4225 4.7625 -3.125 4.125 C-2 2 -2 2 0 0 Z " fill="#E5CEF0" transform="translate(454,513)"/>
<path d="M0 0 C0.33 0 0.66 0 1 0 C1 3.96 1 7.92 1 12 C0.01 12.495 0.01 12.495 -1 13 C-2.0070238 7.96488101 -1.97387813 4.76052962 0 0 Z " fill="#571E7B" transform="translate(294,107)"/>
<path d="M0 0 C0.99 0 1.98 0 3 0 C2.25 4.75 2.25 4.75 0 7 C-2.125 6.625 -2.125 6.625 -4 6 C-2.1875 3 -2.1875 3 0 0 Z " fill="#55227D" transform="translate(296,55)"/>
<path d="M0 0 C2.79872437 2.52788007 4.45773019 4.20411134 5 8 C2.08482708 6.92598892 0.22189824 6.22189824 -2 4 C-1 1 -1 1 0 0 Z " fill="#A97CC0" transform="translate(387,269)"/>
<path d="M0 0 C1.36511719 0.29197266 1.36511719 0.29197266 2.7578125 0.58984375 C3.45648438 0.74582031 4.15515625 0.90179688 4.875 1.0625 C4.875 1.7225 4.875 2.3825 4.875 3.0625 C3.24919034 2.94851335 1.62432843 2.82094341 0 2.6875 C-0.90492188 2.61789063 -1.80984375 2.54828125 -2.7421875 2.4765625 C-5.125 2.0625 -5.125 2.0625 -7.125 0.0625 C-4.4030754 -1.2984623 -2.9418043 -0.64116248 0 0 Z " fill="#59277E" transform="translate(405.125,133.9375)"/>
<path d="M0 0 C0.66 0.33 1.32 0.66 2 1 C2 2.98 2 4.96 2 7 C1.34 7 0.68 7 0 7 C0 7.99 0 8.98 0 10 C-1.32 9.34 -2.64 8.68 -4 8 C-4 7.34 -4 6.68 -4 6 C-2.68 6 -1.36 6 0 6 C0 4.02 0 2.04 0 0 Z " fill="#632B88" transform="translate(240,345)"/>
<path d="M0 0 C4.30764815 1.56641751 8.06171464 3.68336156 12 6 C10.4375 6.75 10.4375 6.75 8 7 C5.45280141 5.97667131 3.13666413 4.72727704 1 3 C0.67 2.01 0.34 1.02 0 0 Z " fill="#8653A4" transform="translate(500,236)"/>
<path d="M0 0 C5.86448454 0.2555331 9.65757571 0.65757571 14 5 C11.03 5 8.06 5 5 5 C5.33 4.34 5.66 3.68 6 3 C4.02 2.34 2.04 1.68 0 1 C0 0.67 0 0.34 0 0 Z " fill="#946CA8" transform="translate(379,124)"/>
<path d="M0 0 C0.66 0.33 1.32 0.66 2 1 C1.67 1.99 1.34 2.98 1 4 C0.01 4.33 -0.98 4.66 -2 5 C-2 5.99 -2 6.98 -2 8 C-2.66 8 -3.32 8 -4 8 C-4 8.66 -4 9.32 -4 10 C-4.66 10 -5.32 10 -6 10 C-6.33 9.01 -6.66 8.02 -7 7 C-5.37660195 5.29115995 -3.70680947 3.62553283 -2 2 C-1.34 2 -0.68 2 0 2 C0 1.34 0 0.68 0 0 Z " fill="#744094" transform="translate(236,99)"/>
<path d="M0 0 C-1.0625 1.5625 -1.0625 1.5625 -3 3 C-6.625 2.8125 -6.625 2.8125 -10 2 C-10.33 1.34 -10.66 0.68 -11 0 C-7.18243176 -1.37432457 -3.92744671 -0.67975039 0 0 Z " fill="#CDA4DF" transform="translate(291,534)"/>
<path d="M0 0 C0.66 0 1.32 0 2 0 C2.33 1.98 2.66 3.96 3 6 C1.824375 5.9690625 1.824375 5.9690625 0.625 5.9375 C-1.98114961 5.81315937 -1.98114961 5.81315937 -4 7 C-2.92598892 4.08482708 -2.22189824 2.22189824 0 0 Z " fill="#8D5AAA" transform="translate(173,168)"/>
<path d="M0 0 C0.33 1.32 0.66 2.64 1 4 C-0.32 4.33 -1.64 4.66 -3 5 C-2.67 5.99 -2.34 6.98 -2 8 C-3.65 8.33 -5.3 8.66 -7 9 C-7 8.34 -7 7.68 -7 7 C-6.34 7 -5.68 7 -5 7 C-4.731875 6.401875 -4.46375 5.80375 -4.1875 5.1875 C-3.01506533 3.02775192 -1.80630718 1.64209744 0 0 Z " fill="#9A6DB2" transform="translate(201,134)"/>
<path d="M0 0 C1.32 0 2.64 0 4 0 C4 0.66 4 1.32 4 2 C5.134375 2.12375 6.26875 2.2475 7.4375 2.375 C8.613125 2.58125 9.78875 2.7875 11 3 C11.33 3.66 11.66 4.32 12 5 C10.39482903 4.91266424 8.79078338 4.80447776 7.1875 4.6875 C5.84751953 4.60048828 5.84751953 4.60048828 4.48046875 4.51171875 C1.69396 3.93686419 0.75864246 3.1793144 -1 1 C-0.67 0.67 -0.34 0.34 0 0 Z " fill="#7D4F9A" transform="translate(397,130)"/>
<path d="M0 0 C0.33 0 0.66 0 1 0 C1.3227506 4.62609198 0.84450614 7.28026121 -2 11 C-2.66 11 -3.32 11 -4 11 C-4.33 10.01 -4.66 9.02 -5 8 C-4.0409375 7.13375 -4.0409375 7.13375 -3.0625 6.25 C-1.01776132 4.01937599 -0.41794801 2.92563609 0 0 Z " fill="#481670" transform="translate(321,48)"/>
<path d="M0 0 C-9.41002278 3.25968109 -9.41002278 3.25968109 -14 4 C-10.5440617 -0.47239075 -5.23364579 -1.61035255 0 0 Z " fill="#D7C2E1" transform="translate(303,250)"/>
<path d="M0 0 C1.32 0 2.64 0 4 0 C4 0.99 4 1.98 4 3 C3.34 3 2.68 3 2 3 C1.67 4.32 1.34 5.64 1 7 C0.67 6.34 0.34 5.68 0 5 C-0.66 5 -1.32 5 -2 5 C-2 4.34 -2 3.68 -2 3 C-1.34 3 -0.68 3 0 3 C0 2.01 0 1.02 0 0 Z " fill="#774196" transform="translate(152,201)"/>
<path d="M0 0 C4.10958767 1.45044271 7.43258745 3.51110752 11 6 C10.67 6.66 10.34 7.32 10 8 C8.32819726 7.05065487 6.66266064 6.09026687 5 5.125 C4.071875 4.59132813 3.14375 4.05765625 2.1875 3.5078125 C1.465625 3.01023437 0.74375 2.51265625 0 2 C0 1.34 0 0.68 0 0 Z " fill="#E2CBE8" transform="translate(200,501)"/>
<path d="M0 0 C0.99 0.66 1.98 1.32 3 2 C3 2.66 3 3.32 3 4 C2.34 4 1.68 4 1 4 C0.67 6.64 0.34 9.28 0 12 C-1.0625 10.1875 -1.0625 10.1875 -2 8 C-1.67 7.01 -1.34 6.02 -1 5 C-0.65179959 3.33637583 -0.31595508 1.67004829 0 0 Z " fill="#986AB5" transform="translate(406,298)"/>
<path d="M0 0 C4.75 0.75 4.75 0.75 7 3 C7 3.99 7 4.98 7 6 C5.68 5.67 4.36 5.34 3 5 C3 4.01 3 3.02 3 2 C2.01 2 1.02 2 0 2 C0 1.34 0 0.68 0 0 Z " fill="#612D89" transform="translate(457,166)"/>
<path d="M0 0 C0.66 0.33 1.32 0.66 2 1 C1.2575 1.6496875 1.2575 1.6496875 0.5 2.3125 C-1.33218192 3.99740483 -1.33218192 3.99740483 -1 7 C-2.65 7.33 -4.3 7.66 -6 8 C-2.25 2.25 -2.25 2.25 0 0 Z " fill="#9261AF" transform="translate(214,120)"/>
<path d="M0 0 C7.56634615 -0.37211538 7.56634615 -0.37211538 9.76171875 1.51171875 C10.17035156 2.00285156 10.57898438 2.49398437 11 3 C9.54077307 2.88590407 8.08259402 2.75834456 6.625 2.625 C5.40683594 2.52058594 5.40683594 2.52058594 4.1640625 2.4140625 C2 2 2 2 0 0 Z " fill="#5C267E" transform="translate(363,122)"/>
<path d="M0 0 C0.33 0.66 0.66 1.32 1 2 C0.34 2 -0.32 2 -1 2 C-0.67 3.32 -0.34 4.64 0 6 C-2.66666667 6 -5.33333333 6 -8 6 C-5.36 4.02 -2.72 2.04 0 0 Z " fill="#815698" transform="translate(280,65)"/>
<path d="M0 0 C0.33 0 0.66 0 1 0 C0.88601335 1.62580966 0.75844341 3.25067157 0.625 4.875 C0.55539062 5.77992187 0.48578125 6.68484375 0.4140625 7.6171875 C0 10 0 10 -2 12 C-2.66 11.67 -3.32 11.34 -4 11 C-3.71125 10.29875 -3.4225 9.5975 -3.125 8.875 C-1.97866412 5.94547497 -0.97374346 2.99078347 0 0 Z " fill="#CEC1DC" transform="translate(323,48)"/>
<path d="M0 0 C0.66 0.33 1.32 0.66 2 1 C1.01 3.64 0.02 6.28 -1 9 C-1.66 9 -2.32 9 -3 9 C-3.33 9.66 -3.66 10.32 -4 11 C-4 9.35 -4 7.7 -4 6 C-3.34 6 -2.68 6 -2 6 C-1.34 4.02 -0.68 2.04 0 0 Z " fill="#D2B1E2" transform="translate(510,429)"/>
<path d="M0 0 C0 0.99 0 1.98 0 3 C-1 4 -1 4 -3.375 4.25 C-6 4 -6 4 -9 1 C-4.545 0.505 -4.545 0.505 0 0 Z " fill="#9D72B7" transform="translate(349,409)"/>
<path d="M0 0 C0.6875 1.8125 0.6875 1.8125 1 4 C-0.4375 5.75 -0.4375 5.75 -2 7 C-2.99 6.67 -3.98 6.34 -5 6 C-4.34 5.34 -3.68 4.68 -3 4 C-3.33 3.01 -3.66 2.02 -4 1 C-2 0 -2 0 0 0 Z " fill="#622E85" transform="translate(230,107)"/>
<path d="M0 0 C0.33 1.32 0.66 2.64 1 4 C0.01 4 -0.98 4 -2 4 C-2.103125 4.639375 -2.20625 5.27875 -2.3125 5.9375 C-2.539375 6.618125 -2.76625 7.29875 -3 8 C-3.99 8.33 -4.98 8.66 -6 9 C-5.52797514 4.75177626 -3.03344482 2.80010291 0 0 Z " fill="#DDBEEA" transform="translate(478,482)"/>
<path d="M0 0 C0.66 0.99 1.32 1.98 2 3 C-0.97 7.95 -0.97 7.95 -4 13 C-4.33 12.34 -4.66 11.68 -5 11 C-4.02065076 9.32111559 -3.01656081 7.65661761 -2 6 C-1.28856912 4.01548229 -0.61008664 2.01797888 0 0 Z " fill="#D9C9DE" transform="translate(250,289)"/>
<path d="M0 0 C0.99 0 1.98 0 3 0 C3 0.66 3 1.32 3 2 C3.99 2 4.98 2 6 2 C6.33 3.32 6.66 4.64 7 6 C2.32307692 4.52307692 2.32307692 4.52307692 0.6875 1.875 C0.460625 1.25625 0.23375 0.6375 0 0 Z " fill="#A978BE" transform="translate(377,263)"/>
<path d="M0 0 C1.485 0.99 1.485 0.99 3 2 C3 2.99 3 3.98 3 5 C3.66 5 4.32 5 5 5 C5 5.66 5 6.32 5 7 C2.5625 6.25 2.5625 6.25 0 5 C-0.875 2.9375 -0.875 2.9375 -1 1 C-0.67 0.67 -0.34 0.34 0 0 Z " fill="#A478BB" transform="translate(371,255)"/>
<path d="M0 0 C2 3.75 2 3.75 2 6 C0.35 6.33 -1.3 6.66 -3 7 C-2.25 2.25 -2.25 2.25 0 0 Z " fill="#753C94" transform="translate(142,219)"/>
<path d="M0 0 C1 2 1 2 0.1875 5.0625 C-1 8 -1 8 -3 9 C-3.75 7.3125 -3.75 7.3125 -4 5 C-2.0625 2.25 -2.0625 2.25 0 0 Z " fill="#CDA6E0" transform="translate(499,447)"/>
<path d="M0 0 C1.485 0.99 1.485 0.99 3 2 C3 2.66 3 3.32 3 4 C2.34 4 1.68 4 1 4 C1 5.98 1 7.96 1 10 C0.34 9.34 -0.32 8.68 -1 8 C-0.96712417 5.27130593 -0.43602229 2.7033382 0 0 Z " fill="#9762B3" transform="translate(409,302)"/>
<path d="M0 0 C1.34209166 2.68418333 0.63233676 4.11935477 0 7 C0 7.99 0 8.98 0 10 C-0.99 10 -1.98 10 -3 10 C-2.69201674 8.51988629 -2.378482 7.04092675 -2.0625 5.5625 C-1.88847656 4.73878906 -1.71445313 3.91507813 -1.53515625 3.06640625 C-1 1 -1 1 0 0 Z " fill="#8F5EAB" transform="translate(133,233)"/>
<path d="M0 0 C0.66 0.33 1.32 0.66 2 1 C0.6875 3.5 0.6875 3.5 -1 6 C-1.99 6 -2.98 6 -4 6 C-3.6875 4.125 -3.6875 4.125 -3 2 C-2.01 1.34 -1.02 0.68 0 0 Z " fill="#592A7F" transform="translate(309,47)"/>
<path d="M0 0 C0.33 0 0.66 0 1 0 C1.25 2.8125 1.25 2.8125 1 6 C-1 7.875 -1 7.875 -3 9 C-2.01 6.03 -1.02 3.06 0 0 Z " fill="#DBBFEC" transform="translate(340,577)"/>
<path d="M0 0 C-1.25125384 3.75376152 -2.5652404 4.24073289 -6 6 C-6.66 6 -7.32 6 -8 6 C-7.67 5.01 -7.34 4.02 -7 3 C-6.01 3 -5.02 3 -4 3 C-4 2.34 -4 1.68 -4 1 C-2 0 -2 0 0 0 Z " fill="#D9BDE6" transform="translate(402,566)"/>
<path d="M0 0 C2.75 -0.25 2.75 -0.25 6 0 C8.375 2 8.375 2 10 4 C8.72125 3.71125 7.4425 3.4225 6.125 3.125 C5.40570313 2.96257813 4.68640625 2.80015625 3.9453125 2.6328125 C2 2 2 2 0 0 Z " fill="#D6B7E4" transform="translate(253,528)"/>
<path d="M0 0 C1.32 0 2.64 0 4 0 C3.67 1.65 3.34 3.3 3 5 C2.01 5.33 1.02 5.66 0 6 C0 4.02 0 2.04 0 0 Z " fill="#C29AD9" transform="translate(128,407)"/>
<path d="M0 0 C-0.33 1.65 -0.66 3.3 -1 5 C-2.98 5 -4.96 5 -7 5 C-2.25 0 -2.25 0 0 0 Z " fill="#B791C9" transform="translate(375,395)"/>
<path d="M0 0 C0 2.70254461 -0.03430669 4.50529228 -1 7 C-3.0625 8.25 -3.0625 8.25 -5 9 C-3.7508258 5.54074837 -2.32472205 2.85306797 0 0 Z " fill="#DAC6DE" transform="translate(258,277)"/>
<path d="M0 0 C0.66 0.66 1.32 1.32 2 2 C1.525625 2.598125 1.05125 3.19625 0.5625 3.8125 C-1.16465744 6.00382924 -1.16465744 6.00382924 -2 9 C-2.66 9 -3.32 9 -4 9 C-2.25 2.25 -2.25 2.25 0 0 Z " fill="#723893" transform="translate(136,231)"/>
<path d="M0 0 C0.33 0 0.66 0 1 0 C1 1.98 1 3.96 1 6 C0.34 6 -0.32 6 -1 6 C-1.33 7.32 -1.66 8.64 -2 10 C-1.85950482 8.52031676 -1.71245174 7.04125484 -1.5625 5.5625 C-1.48128906 4.73878906 -1.40007812 3.91507812 -1.31640625 3.06640625 C-1 1 -1 1 0 0 Z " fill="#54197D" transform="translate(297,95)"/>
<path d="M0 0 C2.6875 0.3125 2.6875 0.3125 5 1 C3 3 3 3 -0.125 3.125 C-1.548125 3.063125 -1.548125 3.063125 -3 3 C-1.8125 1.4375 -1.8125 1.4375 0 0 Z " fill="#D2ABEC" transform="translate(330,610)"/>
<path d="M0 0 C0.66 0.33 1.32 0.66 2 1 C2 2.98 2 4.96 2 7 C1.01 6.67 0.02 6.34 -1 6 C-0.67 4.02 -0.34 2.04 0 0 Z " fill="#5E2A84" transform="translate(242,353)"/>
<path d="M0 0 C1.32 1.32 2.64 2.64 4 4 C2.68 4.33 1.36 4.66 0 5 C-0.33 6.65 -0.66 8.3 -1 10 C-2.31223496 6.06329512 -1.24296256 3.87511856 0 0 Z " fill="#A378B8" transform="translate(406,344)"/>
<path d="M0 0 C0.6875 1.6875 0.6875 1.6875 1 4 C-0.3125 6.75 -0.3125 6.75 -2 9 C-2.66 9 -3.32 9 -4 9 C-2.94124926 5.59687262 -1.99097846 2.98646769 0 0 Z " fill="#D8CADE" transform="translate(313,67)"/>
<path d="M0 0 C0.99 0 1.98 0 3 0 C3.33 1.65 3.66 3.3 4 5 C2.35 4.67 0.7 4.34 -1 4 C-0.67 2.68 -0.34 1.36 0 0 Z " fill="#561C7E" transform="translate(285,69)"/>
<path d="M0 0 C0.66 0 1.32 0 2 0 C2 1.32 2 2.64 2 4 C0.35 4.33 -1.3 4.66 -3 5 C-1.625 2.5 -1.625 2.5 0 0 Z " fill="#4E1C77" transform="translate(288,61)"/>
</svg>
